<?xml version="1.0" encoding="utf-8" standalone="no"?>
<!DOCTYPE svg PUBLIC "-//W3C//DTD SVG 1.1//EN"
  "http://www.w3.org/Graphics/SVG/1.1/DTD/svg11.dtd">
<svg xmlns:xlink="http://www.w3.org/1999/xlink" width="293.4pt" height="252.185832pt" viewBox="0 0 293.4 252.185832" xmlns="http://www.w3.org/2000/svg" version="1.1">
 <metadata>
  <rdf:RDF xmlns:dc="http://purl.org/dc/elements/1.1/" xmlns:cc="http://creativecommons.org/ns#" xmlns:rdf="http://www.w3.org/1999/02/22-rdf-syntax-ns#">
   <cc:Work>
    <dc:type rdf:resource="http://purl.org/dc/dcmitype/StillImage"/>
    <dc:date>2026-04-04T18:11:12.533013</dc:date>
    <dc:format>image/svg+xml</dc:format>
    <dc:creator>
     <cc:Agent>
      <dc:title>Matplotlib v3.10.8, https://matplotlib.org/</dc:title>
     </cc:Agent>
    </dc:creator>
   </cc:Work>
  </rdf:RDF>
 </metadata>
 <defs>
  <style type="text/css">*{stroke-linejoin: round; stroke-linecap: butt}</style>
 </defs>
 <g id="figure_1">
  <g id="patch_1">
   <path d="M 0 252.185832 
L 293.4 252.185832 
L 293.4 -0 
L 0 -0 
z
" style="fill: #ffffff"/>
  </g>
  <g id="axes_1">
   <g id="PatchCollection_1">
    <path d="M 19.881818 213.257811 
L 31.95974 206.284619 
L 44.037662 213.257811 
L 44.037662 227.204194 
L 31.95974 234.177385 
L 19.881818 227.204194 
z
" clip-path="url(#pc6017674a6)" style="fill: #ffffff; stroke: #000000"/>
    <path d="M 44.037662 227.204194 
L 44.037662 213.257811 
L 56.115584 206.284619 
L 68.193506 213.257811 
L 68.193506 227.204194 
L 56.115584 234.177385 
z
" clip-path="url(#pc6017674a6)" style="fill: #ffffff; stroke: #000000"/>
    <path d="M 68.193506 227.204194 
L 68.193506 213.257811 
L 80.271429 206.284619 
L 92.349351 213.257811 
L 92.349351 227.204194 
L 80.271429 234.177385 
z
" clip-path="url(#pc6017674a6)" style="fill: #ffffff; stroke: #000000"/>
    <path d="M 92.349351 227.204194 
L 92.349351 213.257811 
L 104.427273 206.284619 
L 116.505195 213.257811 
L 116.505195 227.204194 
L 104.427273 234.177385 
z
" clip-path="url(#pc6017674a6)" style="fill: #ffffff; stroke: #000000"/>
    <path d="M 116.505195 227.204194 
L 116.505195 213.257811 
L 128.583117 206.284619 
L 140.661039 213.257811 
L 140.661039 227.204194 
L 128.583117 234.177385 
z
" clip-path="url(#pc6017674a6)" style="fill: #ffffff; stroke: #000000"/>
    <path d="M 140.661039 227.204194 
L 140.661039 213.257811 
L 152.738961 206.284619 
L 164.816883 213.257811 
L 164.816883 227.204194 
L 152.738961 234.177385 
z
" clip-path="url(#pc6017674a6)" style="fill: #ffffff; stroke: #000000"/>
    <path d="M 164.816883 227.204194 
L 164.816883 213.257811 
L 176.894805 206.284619 
L 188.972727 213.257811 
L 188.972727 227.204194 
L 176.894805 234.177385 
z
" clip-path="url(#pc6017674a6)" style="fill: #ffffff; stroke: #000000"/>
    <path d="M 188.972727 227.204194 
L 188.972727 213.257811 
L 201.050649 206.284619 
L 213.128571 213.257811 
L 213.128571 227.204194 
L 201.050649 234.177385 
z
" clip-path="url(#pc6017674a6)" style="fill: #ffffff; stroke: #000000"/>
    <path d="M 213.128571 227.204194 
L 213.128571 213.257811 
L 225.206494 206.284619 
L 237.284416 213.257811 
L 237.284416 227.204194 
L 225.206494 234.177385 
z
" clip-path="url(#pc6017674a6)" style="fill: #ffffff; stroke: #000000"/>
    <path d="M 237.284416 227.204194 
L 237.284416 213.257811 
L 249.362338 206.284619 
L 261.44026 213.257811 
L 261.44026 227.204194 
L 249.362338 234.177385 
z
" clip-path="url(#pc6017674a6)" style="fill: #ffffff; stroke: #000000"/>
    <path d="M 31.95974 192.338236 
L 44.037662 185.365044 
L 56.115584 192.338236 
L 56.115584 206.284619 
L 44.037662 213.257811 
L 31.95974 206.284619 
z
" clip-path="url(#pc6017674a6)" style="fill: #ffffff; stroke: #000000"/>
    <path d="M 56.115584 206.284619 
L 56.115584 192.338236 
L 68.193506 185.365044 
L 80.271429 192.338236 
L 80.271429 206.284619 
L 68.193506 213.257811 
z
" clip-path="url(#pc6017674a6)" style="fill: #ffffff; stroke: #000000"/>
    <path d="M 80.271429 206.284619 
L 80.271429 192.338236 
L 92.349351 185.365044 
L 104.427273 192.338236 
L 104.427273 206.284619 
L 92.349351 213.257811 
z
" clip-path="url(#pc6017674a6)" style="fill: #ffffff; stroke: #000000"/>
    <path d="M 104.427273 192.338236 
L 116.505195 185.365044 
L 128.583117 192.338236 
L 128.583117 206.284619 
L 116.505195 213.257811 
L 104.427273 206.284619 
z
" clip-path="url(#pc6017674a6)" style="fill: #ffffff; stroke: #000000"/>
    <path d="M 128.583117 206.284619 
L 128.583117 192.338236 
L 140.661039 185.365044 
L 152.738961 192.338236 
L 152.738961 206.284619 
L 140.661039 213.257811 
z
" clip-path="url(#pc6017674a6)" style="fill: #ffffff; stroke: #000000"/>
    <path d="M 152.738961 206.284619 
L 152.738961 192.338236 
L 164.816883 185.365044 
L 176.894805 192.338236 
L 176.894805 206.284619 
L 164.816883 213.257811 
z
" clip-path="url(#pc6017674a6)" style="fill: #ffffff; stroke: #000000"/>
    <path d="M 176.894805 206.284619 
L 176.894805 192.338236 
L 188.972727 185.365044 
L 201.050649 192.338236 
L 201.050649 206.284619 
L 188.972727 213.257811 
z
" clip-path="url(#pc6017674a6)" style="fill: #ffffff; stroke: #000000"/>
    <path d="M 201.050649 206.284619 
L 201.050649 192.338236 
L 213.128571 185.365044 
L 225.206494 192.338236 
L 225.206494 206.284619 
L 213.128571 213.257811 
z
" clip-path="url(#pc6017674a6)" style="fill: #ffffff; stroke: #000000"/>
    <path d="M 225.206494 206.284619 
L 225.206494 192.338236 
L 237.284416 185.365044 
L 249.362338 192.338236 
L 249.362338 206.284619 
L 237.284416 213.257811 
z
" clip-path="url(#pc6017674a6)" style="fill: #ffffff; stroke: #000000"/>
    <path d="M 249.362338 206.284619 
L 249.362338 192.338236 
L 261.44026 185.365044 
L 273.518182 192.338236 
L 273.518182 206.284619 
L 261.44026 213.257811 
z
" clip-path="url(#pc6017674a6)" style="fill: #ffffff; stroke: #000000"/>
    <path d="M 19.881818 171.418661 
L 31.95974 164.44547 
L 44.037662 171.418661 
L 44.037662 185.365044 
L 31.95974 192.338236 
L 19.881818 185.365044 
z
" clip-path="url(#pc6017674a6)" style="fill: #ffffff; stroke: #000000"/>
    <path d="M 44.037662 185.365044 
L 44.037662 171.418661 
L 56.115584 164.44547 
L 68.193506 171.418661 
L 68.193506 185.365044 
L 56.115584 192.338236 
z
" clip-path="url(#pc6017674a6)" style="fill: #ffffff; stroke: #000000"/>
    <path d="M 68.193506 185.365044 
L 68.193506 171.418661 
L 80.271429 164.44547 
L 92.349351 171.418661 
L 92.349351 185.365044 
L 80.271429 192.338236 
z
" clip-path="url(#pc6017674a6)" style="fill: #ffffff; stroke: #000000"/>
    <path d="M 92.349351 185.365044 
L 92.349351 171.418661 
L 104.427273 164.44547 
L 116.505195 171.418661 
L 116.505195 185.365044 
L 104.427273 192.338236 
z
" clip-path="url(#pc6017674a6)" style="fill: #ffffff; stroke: #000000"/>
    <path d="M 116.505195 185.365044 
L 116.505195 171.418661 
L 128.583117 164.44547 
L 140.661039 171.418661 
L 140.661039 185.365044 
L 128.583117 192.338236 
z
" clip-path="url(#pc6017674a6)" style="fill: #ffffff; stroke: #000000"/>
    <path d="M 140.661039 185.365044 
L 140.661039 171.418661 
L 152.738961 164.44547 
L 164.816883 171.418661 
L 164.816883 185.365044 
L 152.738961 192.338236 
z
" clip-path="url(#pc6017674a6)" style="fill: #ffffff; stroke: #000000"/>
    <path d="M 164.816883 185.365044 
L 164.816883 171.418661 
L 176.894805 164.44547 
L 188.972727 171.418661 
L 188.972727 185.365044 
L 176.894805 192.338236 
z
" clip-path="url(#pc6017674a6)" style="fill: #ffffff; stroke: #000000"/>
    <path d="M 188.972727 185.365044 
L 188.972727 171.418661 
L 201.050649 164.44547 
L 213.128571 171.418661 
L 213.128571 185.365044 
L 201.050649 192.338236 
z
" clip-path="url(#pc6017674a6)" style="fill: #ffffff; stroke: #000000"/>
    <path d="M 213.128571 185.365044 
L 213.128571 171.418661 
L 225.206494 164.44547 
L 237.284416 171.418661 
L 237.284416 185.365044 
L 225.206494 192.338236 
z
" clip-path="url(#pc6017674a6)" style="fill: #ffffff; stroke: #000000"/>
    <path d="M 237.284416 185.365044 
L 237.284416 171.418661 
L 249.362338 164.44547 
L 261.44026 171.418661 
L 261.44026 185.365044 
L 249.362338 192.338236 
z
" clip-path="url(#pc6017674a6)" style="fill: #ffffff; stroke: #000000"/>
    <path d="M 31.95974 150.499087 
L 44.037662 143.525895 
L 56.115584 150.499087 
L 56.115584 164.44547 
L 44.037662 171.418661 
L 31.95974 164.44547 
z
" clip-path="url(#pc6017674a6)" style="fill: #ffffff; stroke: #000000"/>
    <path d="M 56.115584 164.44547 
L 56.115584 150.499087 
L 68.193506 143.525895 
L 80.271429 150.499087 
L 80.271429 164.44547 
L 68.193506 171.418661 
z
" clip-path="url(#pc6017674a6)" style="fill: #ffffff; stroke: #000000"/>
    <path d="M 80.271429 164.44547 
L 80.271429 150.499087 
L 92.349351 143.525895 
L 104.427273 150.499087 
L 104.427273 164.44547 
L 92.349351 171.418661 
z
" clip-path="url(#pc6017674a6)" style="fill: #ffffff; stroke: #000000"/>
    <path d="M 104.427273 150.499087 
L 116.505195 143.525895 
L 128.583117 150.499087 
L 128.583117 164.44547 
L 116.505195 171.418661 
L 104.427273 164.44547 
z
" clip-path="url(#pc6017674a6)" style="fill: #ffffff; stroke: #000000"/>
    <path d="M 128.583117 164.44547 
L 128.583117 150.499087 
L 140.661039 143.525895 
L 152.738961 150.499087 
L 152.738961 164.44547 
L 140.661039 171.418661 
z
" clip-path="url(#pc6017674a6)" style="fill: #ffffff; stroke: #000000"/>
    <path d="M 152.738961 164.44547 
L 152.738961 150.499087 
L 164.816883 143.525895 
L 176.894805 150.499087 
L 176.894805 164.44547 
L 164.816883 171.418661 
z
" clip-path="url(#pc6017674a6)" style="fill: #ffffff; stroke: #000000"/>
    <path d="M 176.894805 164.44547 
L 176.894805 150.499087 
L 188.972727 143.525895 
L 201.050649 150.499087 
L 201.050649 164.44547 
L 188.972727 171.418661 
z
" clip-path="url(#pc6017674a6)" style="fill: #ffffff; stroke: #000000"/>
    <path d="M 201.050649 164.44547 
L 201.050649 150.499087 
L 213.128571 143.525895 
L 225.206494 150.499087 
L 225.206494 164.44547 
L 213.128571 171.418661 
z
" clip-path="url(#pc6017674a6)" style="fill: #ffffff; stroke: #000000"/>
    <path d="M 225.206494 164.44547 
L 225.206494 150.499087 
L 237.284416 143.525895 
L 249.362338 150.499087 
L 249.362338 164.44547 
L 237.284416 171.418661 
z
" clip-path="url(#pc6017674a6)" style="fill: #ffffff; stroke: #000000"/>
    <path d="M 249.362338 164.44547 
L 249.362338 150.499087 
L 261.44026 143.525895 
L 273.518182 150.499087 
L 273.518182 164.44547 
L 261.44026 171.418661 
z
" clip-path="url(#pc6017674a6)" style="fill: #ffffff; stroke: #000000"/>
    <path d="M 19.881818 129.579512 
L 31.95974 122.60632 
L 44.037662 129.579512 
L 44.037662 143.525895 
L 31.95974 150.499087 
L 19.881818 143.525895 
z
" clip-path="url(#pc6017674a6)" style="fill: #ffffff; stroke: #000000"/>
    <path d="M 44.037662 143.525895 
L 44.037662 129.579512 
L 56.115584 122.60632 
L 68.193506 129.579512 
L 68.193506 143.525895 
L 56.115584 150.499087 
z
" clip-path="url(#pc6017674a6)" style="fill: #ffffff; stroke: #000000"/>
    <path d="M 68.193506 143.525895 
L 68.193506 129.579512 
L 80.271429 122.60632 
L 92.349351 129.579512 
L 92.349351 143.525895 
L 80.271429 150.499087 
z
" clip-path="url(#pc6017674a6)" style="fill: #ffffff; stroke: #000000"/>
    <path d="M 92.349351 143.525895 
L 92.349351 129.579512 
L 104.427273 122.60632 
L 116.505195 129.579512 
L 116.505195 143.525895 
L 104.427273 150.499087 
z
" clip-path="url(#pc6017674a6)" style="fill: #ffffff; stroke: #000000"/>
    <path d="M 116.505195 143.525895 
L 116.505195 129.579512 
L 128.583117 122.60632 
L 140.661039 129.579512 
L 140.661039 143.525895 
L 128.583117 150.499087 
z
" clip-path="url(#pc6017674a6)" style="fill: #ffffff; stroke: #000000"/>
    <path d="M 140.661039 143.525895 
L 140.661039 129.579512 
L 152.738961 122.60632 
L 164.816883 129.579512 
L 164.816883 143.525895 
L 152.738961 150.499087 
z
" clip-path="url(#pc6017674a6)" style="fill: #ffffff; stroke: #000000"/>
    <path d="M 164.816883 143.525895 
L 164.816883 129.579512 
L 176.894805 122.60632 
L 188.972727 129.579512 
L 188.972727 143.525895 
L 176.894805 150.499087 
z
" clip-path="url(#pc6017674a6)" style="fill: #ffffff; stroke: #000000"/>
    <path d="M 188.972727 143.525895 
L 188.972727 129.579512 
L 201.050649 122.60632 
L 213.128571 129.579512 
L 213.128571 143.525895 
L 201.050649 150.499087 
z
" clip-path="url(#pc6017674a6)" style="fill: #ffffff; stroke: #000000"/>
    <path d="M 213.128571 143.525895 
L 213.128571 129.579512 
L 225.206494 122.60632 
L 237.284416 129.579512 
L 237.284416 143.525895 
L 225.206494 150.499087 
z
" clip-path="url(#pc6017674a6)" style="fill: #ffffff; stroke: #000000"/>
    <path d="M 237.284416 143.525895 
L 237.284416 129.579512 
L 249.362338 122.60632 
L 261.44026 129.579512 
L 261.44026 143.525895 
L 249.362338 150.499087 
z
" clip-path="url(#pc6017674a6)" style="fill: #ffffff; stroke: #000000"/>
    <path d="M 31.95974 108.659937 
L 44.037662 101.686746 
L 56.115584 108.659937 
L 56.115584 122.60632 
L 44.037662 129.579512 
L 31.95974 122.60632 
z
" clip-path="url(#pc6017674a6)" style="fill: #ffffff; stroke: #000000"/>
    <path d="M 56.115584 122.60632 
L 56.115584 108.659937 
L 68.193506 101.686746 
L 80.271429 108.659937 
L 80.271429 122.60632 
L 68.193506 129.579512 
z
" clip-path="url(#pc6017674a6)" style="fill: #ffffff; stroke: #000000"/>
    <path d="M 80.271429 122.60632 
L 80.271429 108.659937 
L 92.349351 101.686746 
L 104.427273 108.659937 
L 104.427273 122.60632 
L 92.349351 129.579512 
z
" clip-path="url(#pc6017674a6)" style="fill: #ffffff; stroke: #000000"/>
    <path d="M 104.427273 108.659937 
L 116.505195 101.686746 
L 128.583117 108.659937 
L 128.583117 122.60632 
L 116.505195 129.579512 
L 104.427273 122.60632 
z
" clip-path="url(#pc6017674a6)" style="fill: #ffffff; stroke: #000000"/>
    <path d="M 128.583117 122.60632 
L 128.583117 108.659937 
L 140.661039 101.686746 
L 152.738961 108.659937 
L 152.738961 122.60632 
L 140.661039 129.579512 
z
" clip-path="url(#pc6017674a6)" style="fill: #ffffff; stroke: #000000"/>
    <path d="M 152.738961 122.60632 
L 152.738961 108.659937 
L 164.816883 101.686746 
L 176.894805 108.659937 
L 176.894805 122.60632 
L 164.816883 129.579512 
z
" clip-path="url(#pc6017674a6)" style="fill: #ffffff; stroke: #000000"/>
    <path d="M 176.894805 122.60632 
L 176.894805 108.659937 
L 188.972727 101.686746 
L 201.050649 108.659937 
L 201.050649 122.60632 
L 188.972727 129.579512 
z
" clip-path="url(#pc6017674a6)" style="fill: #ffffff; stroke: #000000"/>
    <path d="M 201.050649 122.60632 
L 201.050649 108.659937 
L 213.128571 101.686746 
L 225.206494 108.659937 
L 225.206494 122.60632 
L 213.128571 129.579512 
z
" clip-path="url(#pc6017674a6)" style="fill: #ffffff; stroke: #000000"/>
    <path d="M 225.206494 122.60632 
L 225.206494 108.659937 
L 237.284416 101.686746 
L 249.362338 108.659937 
L 249.362338 122.60632 
L 237.284416 129.579512 
z
" clip-path="url(#pc6017674a6)" style="fill: #ffffff; stroke: #000000"/>
    <path d="M 249.362338 122.60632 
L 249.362338 108.659937 
L 261.44026 101.686746 
L 273.518182 108.659937 
L 273.518182 122.60632 
L 261.44026 129.579512 
z
" clip-path="url(#pc6017674a6)" style="fill: #ffffff; stroke: #000000"/>
    <path d="M 19.881818 87.740363 
L 31.95974 80.767171 
L 44.037662 87.740363 
L 44.037662 101.686746 
L 31.95974 108.659937 
L 19.881818 101.686746 
z
" clip-path="url(#pc6017674a6)" style="fill: #ffffff; stroke: #000000"/>
    <path d="M 44.037662 101.686746 
L 44.037662 87.740363 
L 56.115584 80.767171 
L 68.193506 87.740363 
L 68.193506 101.686746 
L 56.115584 108.659937 
z
" clip-path="url(#pc6017674a6)" style="fill: #ffffff; stroke: #000000"/>
    <path d="M 68.193506 101.686746 
L 68.193506 87.740363 
L 80.271429 80.767171 
L 92.349351 87.740363 
L 92.349351 101.686746 
L 80.271429 108.659937 
z
" clip-path="url(#pc6017674a6)" style="fill: #ffffff; stroke: #000000"/>
    <path d="M 92.349351 101.686746 
L 92.349351 87.740363 
L 104.427273 80.767171 
L 116.505195 87.740363 
L 116.505195 101.686746 
L 104.427273 108.659937 
z
" clip-path="url(#pc6017674a6)" style="fill: #ffffff; stroke: #000000"/>
    <path d="M 116.505195 101.686746 
L 116.505195 87.740363 
L 128.583117 80.767171 
L 140.661039 87.740363 
L 140.661039 101.686746 
L 128.583117 108.659937 
z
" clip-path="url(#pc6017674a6)" style="fill: #ffffff; stroke: #000000"/>
    <path d="M 140.661039 101.686746 
L 140.661039 87.740363 
L 152.738961 80.767171 
L 164.816883 87.740363 
L 164.816883 101.686746 
L 152.738961 108.659937 
z
" clip-path="url(#pc6017674a6)" style="fill: #ffffff; stroke: #000000"/>
    <path d="M 164.816883 101.686746 
L 164.816883 87.740363 
L 176.894805 80.767171 
L 188.972727 87.740363 
L 188.972727 101.686746 
L 176.894805 108.659937 
z
" clip-path="url(#pc6017674a6)" style="fill: #ffffff; stroke: #000000"/>
    <path d="M 188.972727 101.686746 
L 188.972727 87.740363 
L 201.050649 80.767171 
L 213.128571 87.740363 
L 213.128571 101.686746 
L 201.050649 108.659937 
z
" clip-path="url(#pc6017674a6)" style="fill: #ffffff; stroke: #000000"/>
    <path d="M 213.128571 101.686746 
L 213.128571 87.740363 
L 225.206494 80.767171 
L 237.284416 87.740363 
L 237.284416 101.686746 
L 225.206494 108.659937 
z
" clip-path="url(#pc6017674a6)" style="fill: #ffffff; stroke: #000000"/>
    <path d="M 237.284416 101.686746 
L 237.284416 87.740363 
L 249.362338 80.767171 
L 261.44026 87.740363 
L 261.44026 101.686746 
L 249.362338 108.659937 
z
" clip-path="url(#pc6017674a6)" style="fill: #ffffff; stroke: #000000"/>
    <path d="M 31.95974 66.820788 
L 44.037662 59.847596 
L 56.115584 66.820788 
L 56.115584 80.767171 
L 44.037662 87.740363 
L 31.95974 80.767171 
z
" clip-path="url(#pc6017674a6)" style="fill: #ffffff; stroke: #000000"/>
    <path d="M 56.115584 80.767171 
L 56.115584 66.820788 
L 68.193506 59.847596 
L 80.271429 66.820788 
L 80.271429 80.767171 
L 68.193506 87.740363 
z
" clip-path="url(#pc6017674a6)" style="fill: #ffffff; stroke: #000000"/>
    <path d="M 80.271429 80.767171 
L 80.271429 66.820788 
L 92.349351 59.847596 
L 104.427273 66.820788 
L 104.427273 80.767171 
L 92.349351 87.740363 
z
" clip-path="url(#pc6017674a6)" style="fill: #ffffff; stroke: #000000"/>
    <path d="M 104.427273 66.820788 
L 116.505195 59.847596 
L 128.583117 66.820788 
L 128.583117 80.767171 
L 116.505195 87.740363 
L 104.427273 80.767171 
z
" clip-path="url(#pc6017674a6)" style="fill: #ffffff; stroke: #000000"/>
    <path d="M 128.583117 80.767171 
L 128.583117 66.820788 
L 140.661039 59.847596 
L 152.738961 66.820788 
L 152.738961 80.767171 
L 140.661039 87.740363 
z
" clip-path="url(#pc6017674a6)" style="fill: #ffffff; stroke: #000000"/>
    <path d="M 152.738961 80.767171 
L 152.738961 66.820788 
L 164.816883 59.847596 
L 176.894805 66.820788 
L 176.894805 80.767171 
L 164.816883 87.740363 
z
" clip-path="url(#pc6017674a6)" style="fill: #ffffff; stroke: #000000"/>
    <path d="M 176.894805 80.767171 
L 176.894805 66.820788 
L 188.972727 59.847596 
L 201.050649 66.820788 
L 201.050649 80.767171 
L 188.972727 87.740363 
z
" clip-path="url(#pc6017674a6)" style="fill: #ffffff; stroke: #000000"/>
    <path d="M 201.050649 80.767171 
L 201.050649 66.820788 
L 213.128571 59.847596 
L 225.206494 66.820788 
L 225.206494 80.767171 
L 213.128571 87.740363 
z
" clip-path="url(#pc6017674a6)" style="fill: #ffffff; stroke: #000000"/>
    <path d="M 225.206494 80.767171 
L 225.206494 66.820788 
L 237.284416 59.847596 
L 249.362338 66.820788 
L 249.362338 80.767171 
L 237.284416 87.740363 
z
" clip-path="url(#pc6017674a6)" style="fill: #ffffff; stroke: #000000"/>
    <path d="M 249.362338 80.767171 
L 249.362338 66.820788 
L 261.44026 59.847596 
L 273.518182 66.820788 
L 273.518182 80.767171 
L 261.44026 87.740363 
z
" clip-path="url(#pc6017674a6)" style="fill: #ffffff; stroke: #000000"/>
    <path d="M 19.881818 45.901213 
L 31.95974 38.928022 
L 44.037662 45.901213 
L 44.037662 59.847596 
L 31.95974 66.820788 
L 19.881818 59.847596 
z
" clip-path="url(#pc6017674a6)" style="fill: #ffffff; stroke: #000000"/>
    <path d="M 44.037662 59.847596 
L 44.037662 45.901213 
L 56.115584 38.928022 
L 68.193506 45.901213 
L 68.193506 59.847596 
L 56.115584 66.820788 
z
" clip-path="url(#pc6017674a6)" style="fill: #ffffff; stroke: #000000"/>
    <path d="M 68.193506 59.847596 
L 68.193506 45.901213 
L 80.271429 38.928022 
L 92.349351 45.901213 
L 92.349351 59.847596 
L 80.271429 66.820788 
z
" clip-path="url(#pc6017674a6)" style="fill: #ffffff; stroke: #000000"/>
    <path d="M 92.349351 59.847596 
L 92.349351 45.901213 
L 104.427273 38.928022 
L 116.505195 45.901213 
L 116.505195 59.847596 
L 104.427273 66.820788 
z
" clip-path="url(#pc6017674a6)" style="fill: #ffffff; stroke: #000000"/>
    <path d="M 116.505195 59.847596 
L 116.505195 45.901213 
L 128.583117 38.928022 
L 140.661039 45.901213 
L 140.661039 59.847596 
L 128.583117 66.820788 
z
" clip-path="url(#pc6017674a6)" style="fill: #ffffff; stroke: #000000"/>
    <path d="M 140.661039 59.847596 
L 140.661039 45.901213 
L 152.738961 38.928022 
L 164.816883 45.901213 
L 164.816883 59.847596 
L 152.738961 66.820788 
z
" clip-path="url(#pc6017674a6)" style="fill: #ffffff; stroke: #000000"/>
    <path d="M 164.816883 59.847596 
L 164.816883 45.901213 
L 176.894805 38.928022 
L 188.972727 45.901213 
L 188.972727 59.847596 
L 176.894805 66.820788 
z
" clip-path="url(#pc6017674a6)" style="fill: #ffffff; stroke: #000000"/>
    <path d="M 188.972727 59.847596 
L 188.972727 45.901213 
L 201.050649 38.928022 
L 213.128571 45.901213 
L 213.128571 59.847596 
L 201.050649 66.820788 
z
" clip-path="url(#pc6017674a6)" style="fill: #ffffff; stroke: #000000"/>
    <path d="M 213.128571 59.847596 
L 213.128571 45.901213 
L 225.206494 38.928022 
L 237.284416 45.901213 
L 237.284416 59.847596 
L 225.206494 66.820788 
z
" clip-path="url(#pc6017674a6)" style="fill: #ffffff; stroke: #000000"/>
    <path d="M 237.284416 59.847596 
L 237.284416 45.901213 
L 249.362338 38.928022 
L 261.44026 45.901213 
L 261.44026 59.847596 
L 249.362338 66.820788 
z
" clip-path="url(#pc6017674a6)" style="fill: #ffffff; stroke: #000000"/>
    <path d="M 31.95974 24.981638 
L 44.037662 18.008447 
L 56.115584 24.981638 
L 56.115584 38.928022 
L 44.037662 45.901213 
L 31.95974 38.928022 
z
" clip-path="url(#pc6017674a6)" style="fill: #ffffff; stroke: #000000"/>
    <path d="M 56.115584 38.928022 
L 56.115584 24.981638 
L 68.193506 18.008447 
L 80.271429 24.981638 
L 80.271429 38.928022 
L 68.193506 45.901213 
z
" clip-path="url(#pc6017674a6)" style="fill: #ffffff; stroke: #000000"/>
    <path d="M 80.271429 38.928022 
L 80.271429 24.981638 
L 92.349351 18.008447 
L 104.427273 24.981638 
L 104.427273 38.928022 
L 92.349351 45.901213 
z
" clip-path="url(#pc6017674a6)" style="fill: #ffffff; stroke: #000000"/>
    <path d="M 104.427273 24.981638 
L 116.505195 18.008447 
L 128.583117 24.981638 
L 128.583117 38.928022 
L 116.505195 45.901213 
L 104.427273 38.928022 
z
" clip-path="url(#pc6017674a6)" style="fill: #ffffff; stroke: #000000"/>
    <path d="M 128.583117 38.928022 
L 128.583117 24.981638 
L 140.661039 18.008447 
L 152.738961 24.981638 
L 152.738961 38.928022 
L 140.661039 45.901213 
z
" clip-path="url(#pc6017674a6)" style="fill: #ffffff; stroke: #000000"/>
    <path d="M 152.738961 38.928022 
L 152.738961 24.981638 
L 164.816883 18.008447 
L 176.894805 24.981638 
L 176.894805 38.928022 
L 164.816883 45.901213 
z
" clip-path="url(#pc6017674a6)" style="fill: #ffffff; stroke: #000000"/>
    <path d="M 176.894805 38.928022 
L 176.894805 24.981638 
L 188.972727 18.008447 
L 201.050649 24.981638 
L 201.050649 38.928022 
L 188.972727 45.901213 
z
" clip-path="url(#pc6017674a6)" style="fill: #ffffff; stroke: #000000"/>
    <path d="M 201.050649 38.928022 
L 201.050649 24.981638 
L 213.128571 18.008447 
L 225.206494 24.981638 
L 225.206494 38.928022 
L 213.128571 45.901213 
z
" clip-path="url(#pc6017674a6)" style="fill: #ffffff; stroke: #000000"/>
    <path d="M 225.206494 38.928022 
L 225.206494 24.981638 
L 237.284416 18.008447 
L 249.362338 24.981638 
L 249.362338 38.928022 
L 237.284416 45.901213 
z
" clip-path="url(#pc6017674a6)" style="fill: #ffffff; stroke: #000000"/>
    <path d="M 249.362338 38.928022 
L 249.362338 24.981638 
L 261.44026 18.008447 
L 273.518182 24.981638 
L 273.518182 38.928022 
L 261.44026 45.901213 
z
" clip-path="url(#pc6017674a6)" style="fill: #ffffff; stroke: #000000"/>
   </g>
  </g>
 </g>
 <defs>
  <clipPath id="pc6017674a6">
   <rect x="7.2" y="7.2" width="279" height="237.785832"/>
  </clipPath>
 </defs>
</svg>
