<?xml version="1.0" encoding="utf-8" standalone="no"?>
<!DOCTYPE svg PUBLIC "-//W3C//DTD SVG 1.1//EN"
  "http://www.w3.org/Graphics/SVG/1.1/DTD/svg11.dtd">
<svg xmlns:xlink="http://www.w3.org/1999/xlink" width="291.6pt" height="291.6pt" viewBox="0 0 291.6 291.6" xmlns="http://www.w3.org/2000/svg" version="1.1">
 <metadata>
  <rdf:RDF xmlns:dc="http://purl.org/dc/elements/1.1/" xmlns:cc="http://creativecommons.org/ns#" xmlns:rdf="http://www.w3.org/1999/02/22-rdf-syntax-ns#">
   <cc:Work>
    <dc:type rdf:resource="http://purl.org/dc/dcmitype/StillImage"/>
    <dc:date>2026-04-04T18:11:12.568547</dc:date>
    <dc:format>image/svg+xml</dc:format>
    <dc:creator>
     <cc:Agent>
      <dc:title>Matplotlib v3.10.8, https://matplotlib.org/</dc:title>
     </cc:Agent>
    </dc:creator>
   </cc:Work>
  </rdf:RDF>
 </metadata>
 <defs>
  <style type="text/css">*{stroke-linejoin: round; stroke-linecap: butt}</style>
 </defs>
 <g id="figure_1">
  <g id="patch_1">
   <path d="M 0 291.6 
L 291.6 291.6 
L 291.6 0 
L 0 0 
z
" style="fill: #ffffff"/>
  </g>
  <g id="axes_1">
   <g id="PatchCollection_1">
    <path d="M 19.8 271.8 
L 19.8 221.4 
L 70.2 221.4 
L 70.2 271.8 
z
" clip-path="url(#pd0a9fd7790)" style="fill: #ffffff; stroke: #000000"/>
    <path d="M 70.2 271.8 
L 70.2 221.4 
L 120.6 221.4 
L 120.6 271.8 
z
" clip-path="url(#pd0a9fd7790)" style="fill: #ffffff; stroke: #000000"/>
    <path d="M 120.6 271.8 
L 120.6 221.4 
L 171 221.4 
L 171 271.8 
z
" clip-path="url(#pd0a9fd7790)" style="fill: #ffffff; stroke: #000000"/>
    <path d="M 171 271.8 
L 171 221.4 
L 221.4 221.4 
L 221.4 271.8 
z
" clip-path="url(#pd0a9fd7790)" style="fill: #ffffff; stroke: #000000"/>
    <path d="M 221.4 271.8 
L 221.4 221.4 
L 271.8 221.4 
L 271.8 271.8 
z
" clip-path="url(#pd0a9fd7790)" style="fill: #ffffff; stroke: #000000"/>
    <path d="M 19.8 221.4 
L 19.8 171 
L 70.2 171 
L 70.2 221.4 
z
" clip-path="url(#pd0a9fd7790)" style="fill: #ffffff; stroke: #000000"/>
    <path d="M 70.2 221.4 
L 70.2 171 
L 120.6 171 
L 120.6 221.4 
z
" clip-path="url(#pd0a9fd7790)" style="fill: #ffffff; stroke: #000000"/>
    <path d="M 120.6 221.4 
L 120.6 171 
L 171 171 
L 171 221.4 
z
" clip-path="url(#pd0a9fd7790)" style="fill: #ffffff; stroke: #000000"/>
    <path d="M 171 221.4 
L 171 171 
L 221.4 171 
L 221.4 221.4 
z
" clip-path="url(#pd0a9fd7790)" style="fill: #ffffff; stroke: #000000"/>
    <path d="M 221.4 221.4 
L 221.4 171 
L 271.8 171 
L 271.8 221.4 
z
" clip-path="url(#pd0a9fd7790)" style="fill: #ffffff; stroke: #000000"/>
    <path d="M 19.8 171 
L 19.8 120.6 
L 70.2 120.6 
L 70.2 171 
z
" clip-path="url(#pd0a9fd7790)" style="fill: #ffffff; stroke: #000000"/>
    <path d="M 70.2 171 
L 70.2 120.6 
L 120.6 120.6 
L 120.6 171 
z
" clip-path="url(#pd0a9fd7790)" style="fill: #ffffff; stroke: #000000"/>
    <path d="M 120.6 171 
L 120.6 120.6 
L 171 120.6 
L 171 171 
z
" clip-path="url(#pd0a9fd7790)" style="fill: #ffffff; stroke: #000000"/>
    <path d="M 171 171 
L 171 120.6 
L 221.4 120.6 
L 221.4 171 
z
" clip-path="url(#pd0a9fd7790)" style="fill: #ffffff; stroke: #000000"/>
    <path d="M 221.4 171 
L 221.4 120.6 
L 271.8 120.6 
L 271.8 171 
z
" clip-path="url(#pd0a9fd7790)" style="fill: #ffffff; stroke: #000000"/>
    <path d="M 19.8 120.6 
L 19.8 70.2 
L 70.2 70.2 
L 70.2 120.6 
z
" clip-path="url(#pd0a9fd7790)" style="fill: #ffffff; stroke: #000000"/>
    <path d="M 70.2 120.6 
L 70.2 70.2 
L 120.6 70.2 
L 120.6 120.6 
z
" clip-path="url(#pd0a9fd7790)" style="fill: #ffffff; stroke: #000000"/>
    <path d="M 120.6 120.6 
L 120.6 70.2 
L 171 70.2 
L 171 120.6 
z
" clip-path="url(#pd0a9fd7790)" style="fill: #ffffff; stroke: #000000"/>
    <path d="M 171 120.6 
L 171 70.2 
L 221.4 70.2 
L 221.4 120.6 
z
" clip-path="url(#pd0a9fd7790)" style="fill: #ffffff; stroke: #000000"/>
    <path d="M 221.4 120.6 
L 221.4 70.2 
L 271.8 70.2 
L 271.8 120.6 
z
" clip-path="url(#pd0a9fd7790)" style="fill: #ffffff; stroke: #000000"/>
    <path d="M 19.8 70.2 
L 19.8 19.8 
L 70.2 19.8 
L 70.2 70.2 
z
" clip-path="url(#pd0a9fd7790)" style="fill: #ffffff; stroke: #000000"/>
    <path d="M 70.2 70.2 
L 70.2 19.8 
L 120.6 19.8 
L 120.6 70.2 
z
" clip-path="url(#pd0a9fd7790)" style="fill: #ffffff; stroke: #000000"/>
    <path d="M 120.6 70.2 
L 120.6 19.8 
L 171 19.8 
L 171 70.2 
z
" clip-path="url(#pd0a9fd7790)" style="fill: #ffffff; stroke: #000000"/>
    <path d="M 171 70.2 
L 171 19.8 
L 221.4 19.8 
L 221.4 70.2 
z
" clip-path="url(#pd0a9fd7790)" style="fill: #ffffff; stroke: #000000"/>
    <path d="M 221.4 70.2 
L 221.4 19.8 
L 271.8 19.8 
L 271.8 70.2 
z
" clip-path="url(#pd0a9fd7790)" style="fill: #ffffff; stroke: #000000"/>
   </g>
  </g>
 </g>
 <defs>
  <clipPath id="pd0a9fd7790">
   <rect x="7.2" y="7.2" width="277.2" height="277.2"/>
  </clipPath>
 </defs>
</svg>
