<?xml version="1.0" encoding="utf-8" standalone="no"?>
<!DOCTYPE svg PUBLIC "-//W3C//DTD SVG 1.1//EN"
  "http://www.w3.org/Graphics/SVG/1.1/DTD/svg11.dtd">
<svg xmlns:xlink="http://www.w3.org/1999/xlink" width="1152pt" height="504pt" viewBox="0 0 1152 504" xmlns="http://www.w3.org/2000/svg" version="1.1">
 <metadata>
  <rdf:RDF xmlns:dc="http://purl.org/dc/elements/1.1/" xmlns:cc="http://creativecommons.org/ns#" xmlns:rdf="http://www.w3.org/1999/02/22-rdf-syntax-ns#">
   <cc:Work>
    <dc:type rdf:resource="http://purl.org/dc/dcmitype/StillImage"/>
    <dc:date>2026-04-15T16:54:49.080729</dc:date>
    <dc:format>image/svg+xml</dc:format>
    <dc:creator>
     <cc:Agent>
      <dc:title>Matplotlib v3.10.8, https://matplotlib.org/</dc:title>
     </cc:Agent>
    </dc:creator>
   </cc:Work>
  </rdf:RDF>
 </metadata>
 <defs>
  <style type="text/css">*{stroke-linejoin: round; stroke-linecap: butt}</style>
 </defs>
 <g id="figure_1">
  <g id="patch_1">
   <path d="M 0 504 
L 1152 504 
L 1152 0 
L 0 0 
z
" style="fill: #ffffff"/>
  </g>
  <g id="axes_1">
   <g id="patch_2">
    <path d="M 60.68 455.56 
L 411.32 455.56 
L 411.32 39.48 
L 60.68 39.48 
z
" style="fill: #ffffff"/>
   </g>
   <g id="FillBetweenPolyCollection_1">
    <defs>
     <path id="m8787e40e4f" d="M 76.618182 -100.36938 
L 76.618182 -68.422178 
L 92.24872 -77.093776 
L 107.879259 -86.902815 
L 123.39815 -93.172458 
L 139.028689 -101.06813 
L 154.659227 -107.570386 
L 170.122295 -111.768138 
L 185.69701 -116.399693 
L 201.327549 -122.360124 
L 216.902264 -129.628315 
L 232.532802 -133.605047 
L 248.107517 -139.381559 
L 263.570586 -147.417187 
L 279.201124 -152.419566 
L 294.831662 -161.028879 
L 310.350554 -165.105929 
L 325.981092 -171.272817 
L 341.611631 -176.974412 
L 357.409639 -187.726806 
L 357.409639 -419.079031 
L 357.409639 -419.079031 
L 341.611631 -379.256892 
L 325.981092 -355.951397 
L 310.350554 -344.853781 
L 294.831662 -337.195982 
L 279.201124 -309.700674 
L 263.570586 -296.489742 
L 248.107517 -285.840695 
L 232.532802 -269.425962 
L 216.902264 -262.921283 
L 201.327549 -244.043722 
L 185.69701 -226.354114 
L 170.122295 -203.653774 
L 154.659227 -199.568019 
L 139.028689 -185.898563 
L 123.39815 -160.583382 
L 107.879259 -144.2081 
L 92.24872 -124.249781 
L 76.618182 -100.36938 
z
"/>
    </defs>
    <g clip-path="url(#p02dc9a88eb)">
     <use xlink:href="#m8787e40e4f" x="0" y="504" style="fill: #08519c; fill-opacity: 0.15"/>
    </g>
   </g>
   <g id="FillBetweenPolyCollection_2">
    <defs>
     <path id="m0fd54f6d07" d="M 76.618182 -106.215225 
L 76.618182 -71.752236 
L 92.24872 -85.040944 
L 107.879259 -94.223159 
L 123.39815 -103.647164 
L 139.028689 -108.461272 
L 154.659227 -115.150974 
L 170.122295 -122.75721 
L 185.69701 -129.810948 
L 201.327549 -137.073831 
L 216.902264 -144.907545 
L 232.532802 -155.07474 
L 248.107517 -159.43754 
L 263.570586 -169.371175 
L 279.201124 -176.066821 
L 294.831662 -186.57954 
L 310.350554 -195.518914 
L 325.981092 -201.47013 
L 341.611631 -210.767996 
L 357.409639 -220.438055 
L 357.409639 -445.658199 
L 357.409639 -445.658199 
L 341.611631 -432.804724 
L 325.981092 -416.979671 
L 310.350554 -395.094167 
L 294.831662 -393.020255 
L 279.201124 -365.426095 
L 263.570586 -344.416054 
L 248.107517 -320.366874 
L 232.532802 -317.707425 
L 216.902264 -283.585298 
L 201.327549 -263.07494 
L 185.69701 -253.308955 
L 170.122295 -229.064278 
L 154.659227 -209.88958 
L 139.028689 -198.459709 
L 123.39815 -192.355509 
L 107.879259 -163.047837 
L 92.24872 -130.708855 
L 76.618182 -106.215225 
z
"/>
    </defs>
    <g clip-path="url(#p02dc9a88eb)">
     <use xlink:href="#m0fd54f6d07" x="0" y="504" style="fill: #969696; fill-opacity: 0.15"/>
    </g>
   </g>
   <g id="FillBetweenPolyCollection_3">
    <defs>
     <path id="m901aa97fd9" d="M 76.618182 -99.904066 
L 76.618182 -68.679289 
L 92.24872 -76.753099 
L 107.879259 -84.177204 
L 123.39815 -91.250529 
L 139.028689 -97.501136 
L 154.659227 -104.623595 
L 170.122295 -111.112803 
L 185.69701 -117.49626 
L 201.327549 -122.84388 
L 216.902264 -129.410344 
L 232.532802 -137.250213 
L 248.107517 -142.696049 
L 263.570586 -148.883123 
L 279.201124 -154.65824 
L 294.831662 -160.466526 
L 310.350554 -164.299106 
L 325.981092 -170.935218 
L 341.611631 -178.000566 
L 357.409639 -184.994433 
L 357.409639 -389.130346 
L 357.409639 -389.130346 
L 341.611631 -369.620409 
L 325.981092 -355.709603 
L 310.350554 -349.591081 
L 294.831662 -326.275789 
L 279.201124 -327.588186 
L 263.570586 -303.370705 
L 248.107517 -286.972637 
L 232.532802 -271.879166 
L 216.902264 -247.018055 
L 201.327549 -240.413605 
L 185.69701 -233.393968 
L 170.122295 -215.121876 
L 154.659227 -192.625565 
L 139.028689 -175.913212 
L 123.39815 -157.431624 
L 107.879259 -138.761674 
L 92.24872 -121.411372 
L 76.618182 -99.904066 
z
"/>
    </defs>
    <g clip-path="url(#p02dc9a88eb)">
     <use xlink:href="#m901aa97fd9" x="0" y="504" style="fill: #a50f15; fill-opacity: 0.15"/>
    </g>
   </g>
   <g id="matplotlib.axis_1">
    <g id="xtick_1">
     <g id="line2d_1">
      <path d="M 60.820173 455.56 
L 60.820173 39.48 
" clip-path="url(#p02dc9a88eb)" style="fill: none; stroke-dasharray: 0.8,1.32; stroke-dashoffset: 0; stroke: #d3d3d3; stroke-opacity: 0.7; stroke-width: 0.8"/>
     </g>
     <g id="line2d_2">
      <defs>
       <path id="m9805787ac4" d="M 0 0 
L 0 3.5 
" style="stroke: #000000; stroke-width: 0.8"/>
      </defs>
      <g>
       <use xlink:href="#m9805787ac4" x="60.820173" y="455.56" style="stroke: #000000; stroke-width: 0.8"/>
      </g>
     </g>
     <g id="text_1">
      <!-- 0 -->
      <g transform="translate(57.638923 470.158437) scale(0.1 -0.1)">
       <defs>
        <path id="DejaVuSans-30" d="M 2034 4250 
Q 1547 4250 1301 3770 
Q 1056 3291 1056 2328 
Q 1056 1369 1301 889 
Q 1547 409 2034 409 
Q 2525 409 2770 889 
Q 3016 1369 3016 2328 
Q 3016 3291 2770 3770 
Q 2525 4250 2034 4250 
z
M 2034 4750 
Q 2819 4750 3233 4129 
Q 3647 3509 3647 2328 
Q 3647 1150 3233 529 
Q 2819 -91 2034 -91 
Q 1250 -91 836 529 
Q 422 1150 422 2328 
Q 422 3509 836 4129 
Q 1250 4750 2034 4750 
z
" transform="scale(0.015625)"/>
       </defs>
       <use xlink:href="#DejaVuSans-30"/>
      </g>
     </g>
    </g>
    <g id="xtick_2">
     <g id="line2d_3">
      <path d="M 103.24592 455.56 
L 103.24592 39.48 
" clip-path="url(#p02dc9a88eb)" style="fill: none; stroke-dasharray: 0.8,1.32; stroke-dashoffset: 0; stroke: #d3d3d3; stroke-opacity: 0.7; stroke-width: 0.8"/>
     </g>
     <g id="line2d_4">
      <g>
       <use xlink:href="#m9805787ac4" x="103.24592" y="455.56" style="stroke: #000000; stroke-width: 0.8"/>
      </g>
     </g>
     <g id="text_2">
      <!-- 10 -->
      <g transform="translate(96.88342 470.158437) scale(0.1 -0.1)">
       <defs>
        <path id="DejaVuSans-31" d="M 794 531 
L 1825 531 
L 1825 4091 
L 703 3866 
L 703 4441 
L 1819 4666 
L 2450 4666 
L 2450 531 
L 3481 531 
L 3481 0 
L 794 0 
L 794 531 
z
" transform="scale(0.015625)"/>
       </defs>
       <use xlink:href="#DejaVuSans-31"/>
       <use xlink:href="#DejaVuSans-30" transform="translate(63.623047 0)"/>
      </g>
     </g>
    </g>
    <g id="xtick_3">
     <g id="line2d_5">
      <path d="M 145.671667 455.56 
L 145.671667 39.48 
" clip-path="url(#p02dc9a88eb)" style="fill: none; stroke-dasharray: 0.8,1.32; stroke-dashoffset: 0; stroke: #d3d3d3; stroke-opacity: 0.7; stroke-width: 0.8"/>
     </g>
     <g id="line2d_6">
      <g>
       <use xlink:href="#m9805787ac4" x="145.671667" y="455.56" style="stroke: #000000; stroke-width: 0.8"/>
      </g>
     </g>
     <g id="text_3">
      <!-- 20 -->
      <g transform="translate(139.309167 470.158437) scale(0.1 -0.1)">
       <defs>
        <path id="DejaVuSans-32" d="M 1228 531 
L 3431 531 
L 3431 0 
L 469 0 
L 469 531 
Q 828 903 1448 1529 
Q 2069 2156 2228 2338 
Q 2531 2678 2651 2914 
Q 2772 3150 2772 3378 
Q 2772 3750 2511 3984 
Q 2250 4219 1831 4219 
Q 1534 4219 1204 4116 
Q 875 4013 500 3803 
L 500 4441 
Q 881 4594 1212 4672 
Q 1544 4750 1819 4750 
Q 2544 4750 2975 4387 
Q 3406 4025 3406 3419 
Q 3406 3131 3298 2873 
Q 3191 2616 2906 2266 
Q 2828 2175 2409 1742 
Q 1991 1309 1228 531 
z
" transform="scale(0.015625)"/>
       </defs>
       <use xlink:href="#DejaVuSans-32"/>
       <use xlink:href="#DejaVuSans-30" transform="translate(63.623047 0)"/>
      </g>
     </g>
    </g>
    <g id="xtick_4">
     <g id="line2d_7">
      <path d="M 188.097414 455.56 
L 188.097414 39.48 
" clip-path="url(#p02dc9a88eb)" style="fill: none; stroke-dasharray: 0.8,1.32; stroke-dashoffset: 0; stroke: #d3d3d3; stroke-opacity: 0.7; stroke-width: 0.8"/>
     </g>
     <g id="line2d_8">
      <g>
       <use xlink:href="#m9805787ac4" x="188.097414" y="455.56" style="stroke: #000000; stroke-width: 0.8"/>
      </g>
     </g>
     <g id="text_4">
      <!-- 30 -->
      <g transform="translate(181.734914 470.158437) scale(0.1 -0.1)">
       <defs>
        <path id="DejaVuSans-33" d="M 2597 2516 
Q 3050 2419 3304 2112 
Q 3559 1806 3559 1356 
Q 3559 666 3084 287 
Q 2609 -91 1734 -91 
Q 1441 -91 1130 -33 
Q 819 25 488 141 
L 488 750 
Q 750 597 1062 519 
Q 1375 441 1716 441 
Q 2309 441 2620 675 
Q 2931 909 2931 1356 
Q 2931 1769 2642 2001 
Q 2353 2234 1838 2234 
L 1294 2234 
L 1294 2753 
L 1863 2753 
Q 2328 2753 2575 2939 
Q 2822 3125 2822 3475 
Q 2822 3834 2567 4026 
Q 2313 4219 1838 4219 
Q 1578 4219 1281 4162 
Q 984 4106 628 3988 
L 628 4550 
Q 988 4650 1302 4700 
Q 1616 4750 1894 4750 
Q 2613 4750 3031 4423 
Q 3450 4097 3450 3541 
Q 3450 3153 3228 2886 
Q 3006 2619 2597 2516 
z
" transform="scale(0.015625)"/>
       </defs>
       <use xlink:href="#DejaVuSans-33"/>
       <use xlink:href="#DejaVuSans-30" transform="translate(63.623047 0)"/>
      </g>
     </g>
    </g>
    <g id="xtick_5">
     <g id="line2d_9">
      <path d="M 230.523162 455.56 
L 230.523162 39.48 
" clip-path="url(#p02dc9a88eb)" style="fill: none; stroke-dasharray: 0.8,1.32; stroke-dashoffset: 0; stroke: #d3d3d3; stroke-opacity: 0.7; stroke-width: 0.8"/>
     </g>
     <g id="line2d_10">
      <g>
       <use xlink:href="#m9805787ac4" x="230.523162" y="455.56" style="stroke: #000000; stroke-width: 0.8"/>
      </g>
     </g>
     <g id="text_5">
      <!-- 40 -->
      <g transform="translate(224.160662 470.158437) scale(0.1 -0.1)">
       <defs>
        <path id="DejaVuSans-34" d="M 2419 4116 
L 825 1625 
L 2419 1625 
L 2419 4116 
z
M 2253 4666 
L 3047 4666 
L 3047 1625 
L 3713 1625 
L 3713 1100 
L 3047 1100 
L 3047 0 
L 2419 0 
L 2419 1100 
L 313 1100 
L 313 1709 
L 2253 4666 
z
" transform="scale(0.015625)"/>
       </defs>
       <use xlink:href="#DejaVuSans-34"/>
       <use xlink:href="#DejaVuSans-30" transform="translate(63.623047 0)"/>
      </g>
     </g>
    </g>
    <g id="xtick_6">
     <g id="line2d_11">
      <path d="M 272.948909 455.56 
L 272.948909 39.48 
" clip-path="url(#p02dc9a88eb)" style="fill: none; stroke-dasharray: 0.8,1.32; stroke-dashoffset: 0; stroke: #d3d3d3; stroke-opacity: 0.7; stroke-width: 0.8"/>
     </g>
     <g id="line2d_12">
      <g>
       <use xlink:href="#m9805787ac4" x="272.948909" y="455.56" style="stroke: #000000; stroke-width: 0.8"/>
      </g>
     </g>
     <g id="text_6">
      <!-- 50 -->
      <g transform="translate(266.586409 470.158437) scale(0.1 -0.1)">
       <defs>
        <path id="DejaVuSans-35" d="M 691 4666 
L 3169 4666 
L 3169 4134 
L 1269 4134 
L 1269 2991 
Q 1406 3038 1543 3061 
Q 1681 3084 1819 3084 
Q 2600 3084 3056 2656 
Q 3513 2228 3513 1497 
Q 3513 744 3044 326 
Q 2575 -91 1722 -91 
Q 1428 -91 1123 -41 
Q 819 9 494 109 
L 494 744 
Q 775 591 1075 516 
Q 1375 441 1709 441 
Q 2250 441 2565 725 
Q 2881 1009 2881 1497 
Q 2881 1984 2565 2268 
Q 2250 2553 1709 2553 
Q 1456 2553 1204 2497 
Q 953 2441 691 2322 
L 691 4666 
z
" transform="scale(0.015625)"/>
       </defs>
       <use xlink:href="#DejaVuSans-35"/>
       <use xlink:href="#DejaVuSans-30" transform="translate(63.623047 0)"/>
      </g>
     </g>
    </g>
    <g id="xtick_7">
     <g id="line2d_13">
      <path d="M 315.374656 455.56 
L 315.374656 39.48 
" clip-path="url(#p02dc9a88eb)" style="fill: none; stroke-dasharray: 0.8,1.32; stroke-dashoffset: 0; stroke: #d3d3d3; stroke-opacity: 0.7; stroke-width: 0.8"/>
     </g>
     <g id="line2d_14">
      <g>
       <use xlink:href="#m9805787ac4" x="315.374656" y="455.56" style="stroke: #000000; stroke-width: 0.8"/>
      </g>
     </g>
     <g id="text_7">
      <!-- 60 -->
      <g transform="translate(309.012156 470.158437) scale(0.1 -0.1)">
       <defs>
        <path id="DejaVuSans-36" d="M 2113 2584 
Q 1688 2584 1439 2293 
Q 1191 2003 1191 1497 
Q 1191 994 1439 701 
Q 1688 409 2113 409 
Q 2538 409 2786 701 
Q 3034 994 3034 1497 
Q 3034 2003 2786 2293 
Q 2538 2584 2113 2584 
z
M 3366 4563 
L 3366 3988 
Q 3128 4100 2886 4159 
Q 2644 4219 2406 4219 
Q 1781 4219 1451 3797 
Q 1122 3375 1075 2522 
Q 1259 2794 1537 2939 
Q 1816 3084 2150 3084 
Q 2853 3084 3261 2657 
Q 3669 2231 3669 1497 
Q 3669 778 3244 343 
Q 2819 -91 2113 -91 
Q 1303 -91 875 529 
Q 447 1150 447 2328 
Q 447 3434 972 4092 
Q 1497 4750 2381 4750 
Q 2619 4750 2861 4703 
Q 3103 4656 3366 4563 
z
" transform="scale(0.015625)"/>
       </defs>
       <use xlink:href="#DejaVuSans-36"/>
       <use xlink:href="#DejaVuSans-30" transform="translate(63.623047 0)"/>
      </g>
     </g>
    </g>
    <g id="xtick_8">
     <g id="line2d_15">
      <path d="M 357.800403 455.56 
L 357.800403 39.48 
" clip-path="url(#p02dc9a88eb)" style="fill: none; stroke-dasharray: 0.8,1.32; stroke-dashoffset: 0; stroke: #d3d3d3; stroke-opacity: 0.7; stroke-width: 0.8"/>
     </g>
     <g id="line2d_16">
      <g>
       <use xlink:href="#m9805787ac4" x="357.800403" y="455.56" style="stroke: #000000; stroke-width: 0.8"/>
      </g>
     </g>
     <g id="text_8">
      <!-- 70 -->
      <g transform="translate(351.437903 470.158437) scale(0.1 -0.1)">
       <defs>
        <path id="DejaVuSans-37" d="M 525 4666 
L 3525 4666 
L 3525 4397 
L 1831 0 
L 1172 0 
L 2766 4134 
L 525 4134 
L 525 4666 
z
" transform="scale(0.015625)"/>
       </defs>
       <use xlink:href="#DejaVuSans-37"/>
       <use xlink:href="#DejaVuSans-30" transform="translate(63.623047 0)"/>
      </g>
     </g>
    </g>
    <g id="xtick_9">
     <g id="line2d_17">
      <path d="M 400.22615 455.56 
L 400.22615 39.48 
" clip-path="url(#p02dc9a88eb)" style="fill: none; stroke-dasharray: 0.8,1.32; stroke-dashoffset: 0; stroke: #d3d3d3; stroke-opacity: 0.7; stroke-width: 0.8"/>
     </g>
     <g id="line2d_18">
      <g>
       <use xlink:href="#m9805787ac4" x="400.22615" y="455.56" style="stroke: #000000; stroke-width: 0.8"/>
      </g>
     </g>
     <g id="text_9">
      <!-- 80 -->
      <g transform="translate(393.86365 470.158437) scale(0.1 -0.1)">
       <defs>
        <path id="DejaVuSans-38" d="M 2034 2216 
Q 1584 2216 1326 1975 
Q 1069 1734 1069 1313 
Q 1069 891 1326 650 
Q 1584 409 2034 409 
Q 2484 409 2743 651 
Q 3003 894 3003 1313 
Q 3003 1734 2745 1975 
Q 2488 2216 2034 2216 
z
M 1403 2484 
Q 997 2584 770 2862 
Q 544 3141 544 3541 
Q 544 4100 942 4425 
Q 1341 4750 2034 4750 
Q 2731 4750 3128 4425 
Q 3525 4100 3525 3541 
Q 3525 3141 3298 2862 
Q 3072 2584 2669 2484 
Q 3125 2378 3379 2068 
Q 3634 1759 3634 1313 
Q 3634 634 3220 271 
Q 2806 -91 2034 -91 
Q 1263 -91 848 271 
Q 434 634 434 1313 
Q 434 1759 690 2068 
Q 947 2378 1403 2484 
z
M 1172 3481 
Q 1172 3119 1398 2916 
Q 1625 2713 2034 2713 
Q 2441 2713 2670 2916 
Q 2900 3119 2900 3481 
Q 2900 3844 2670 4047 
Q 2441 4250 2034 4250 
Q 1625 4250 1398 4047 
Q 1172 3844 1172 3481 
z
" transform="scale(0.015625)"/>
       </defs>
       <use xlink:href="#DejaVuSans-38"/>
       <use xlink:href="#DejaVuSans-30" transform="translate(63.623047 0)"/>
      </g>
     </g>
    </g>
    <g id="text_10">
     <!-- edges missing (%) -->
     <g transform="translate(162.18 488.395625) scale(0.16 -0.16)">
      <defs>
       <path id="DejaVuSans-65" d="M 3597 1894 
L 3597 1613 
L 953 1613 
Q 991 1019 1311 708 
Q 1631 397 2203 397 
Q 2534 397 2845 478 
Q 3156 559 3463 722 
L 3463 178 
Q 3153 47 2828 -22 
Q 2503 -91 2169 -91 
Q 1331 -91 842 396 
Q 353 884 353 1716 
Q 353 2575 817 3079 
Q 1281 3584 2069 3584 
Q 2775 3584 3186 3129 
Q 3597 2675 3597 1894 
z
M 3022 2063 
Q 3016 2534 2758 2815 
Q 2500 3097 2075 3097 
Q 1594 3097 1305 2825 
Q 1016 2553 972 2059 
L 3022 2063 
z
" transform="scale(0.015625)"/>
       <path id="DejaVuSans-64" d="M 2906 2969 
L 2906 4863 
L 3481 4863 
L 3481 0 
L 2906 0 
L 2906 525 
Q 2725 213 2448 61 
Q 2172 -91 1784 -91 
Q 1150 -91 751 415 
Q 353 922 353 1747 
Q 353 2572 751 3078 
Q 1150 3584 1784 3584 
Q 2172 3584 2448 3432 
Q 2725 3281 2906 2969 
z
M 947 1747 
Q 947 1113 1208 752 
Q 1469 391 1925 391 
Q 2381 391 2643 752 
Q 2906 1113 2906 1747 
Q 2906 2381 2643 2742 
Q 2381 3103 1925 3103 
Q 1469 3103 1208 2742 
Q 947 2381 947 1747 
z
" transform="scale(0.015625)"/>
       <path id="DejaVuSans-67" d="M 2906 1791 
Q 2906 2416 2648 2759 
Q 2391 3103 1925 3103 
Q 1463 3103 1205 2759 
Q 947 2416 947 1791 
Q 947 1169 1205 825 
Q 1463 481 1925 481 
Q 2391 481 2648 825 
Q 2906 1169 2906 1791 
z
M 3481 434 
Q 3481 -459 3084 -895 
Q 2688 -1331 1869 -1331 
Q 1566 -1331 1297 -1286 
Q 1028 -1241 775 -1147 
L 775 -588 
Q 1028 -725 1275 -790 
Q 1522 -856 1778 -856 
Q 2344 -856 2625 -561 
Q 2906 -266 2906 331 
L 2906 616 
Q 2728 306 2450 153 
Q 2172 0 1784 0 
Q 1141 0 747 490 
Q 353 981 353 1791 
Q 353 2603 747 3093 
Q 1141 3584 1784 3584 
Q 2172 3584 2450 3431 
Q 2728 3278 2906 2969 
L 2906 3500 
L 3481 3500 
L 3481 434 
z
" transform="scale(0.015625)"/>
       <path id="DejaVuSans-73" d="M 2834 3397 
L 2834 2853 
Q 2591 2978 2328 3040 
Q 2066 3103 1784 3103 
Q 1356 3103 1142 2972 
Q 928 2841 928 2578 
Q 928 2378 1081 2264 
Q 1234 2150 1697 2047 
L 1894 2003 
Q 2506 1872 2764 1633 
Q 3022 1394 3022 966 
Q 3022 478 2636 193 
Q 2250 -91 1575 -91 
Q 1294 -91 989 -36 
Q 684 19 347 128 
L 347 722 
Q 666 556 975 473 
Q 1284 391 1588 391 
Q 1994 391 2212 530 
Q 2431 669 2431 922 
Q 2431 1156 2273 1281 
Q 2116 1406 1581 1522 
L 1381 1569 
Q 847 1681 609 1914 
Q 372 2147 372 2553 
Q 372 3047 722 3315 
Q 1072 3584 1716 3584 
Q 2034 3584 2315 3537 
Q 2597 3491 2834 3397 
z
" transform="scale(0.015625)"/>
       <path id="DejaVuSans-20" transform="scale(0.015625)"/>
       <path id="DejaVuSans-6d" d="M 3328 2828 
Q 3544 3216 3844 3400 
Q 4144 3584 4550 3584 
Q 5097 3584 5394 3201 
Q 5691 2819 5691 2113 
L 5691 0 
L 5113 0 
L 5113 2094 
Q 5113 2597 4934 2840 
Q 4756 3084 4391 3084 
Q 3944 3084 3684 2787 
Q 3425 2491 3425 1978 
L 3425 0 
L 2847 0 
L 2847 2094 
Q 2847 2600 2669 2842 
Q 2491 3084 2119 3084 
Q 1678 3084 1418 2786 
Q 1159 2488 1159 1978 
L 1159 0 
L 581 0 
L 581 3500 
L 1159 3500 
L 1159 2956 
Q 1356 3278 1631 3431 
Q 1906 3584 2284 3584 
Q 2666 3584 2933 3390 
Q 3200 3197 3328 2828 
z
" transform="scale(0.015625)"/>
       <path id="DejaVuSans-69" d="M 603 3500 
L 1178 3500 
L 1178 0 
L 603 0 
L 603 3500 
z
M 603 4863 
L 1178 4863 
L 1178 4134 
L 603 4134 
L 603 4863 
z
" transform="scale(0.015625)"/>
       <path id="DejaVuSans-6e" d="M 3513 2113 
L 3513 0 
L 2938 0 
L 2938 2094 
Q 2938 2591 2744 2837 
Q 2550 3084 2163 3084 
Q 1697 3084 1428 2787 
Q 1159 2491 1159 1978 
L 1159 0 
L 581 0 
L 581 3500 
L 1159 3500 
L 1159 2956 
Q 1366 3272 1645 3428 
Q 1925 3584 2291 3584 
Q 2894 3584 3203 3211 
Q 3513 2838 3513 2113 
z
" transform="scale(0.015625)"/>
       <path id="DejaVuSans-28" d="M 1984 4856 
Q 1566 4138 1362 3434 
Q 1159 2731 1159 2009 
Q 1159 1288 1364 580 
Q 1569 -128 1984 -844 
L 1484 -844 
Q 1016 -109 783 600 
Q 550 1309 550 2009 
Q 550 2706 781 3412 
Q 1013 4119 1484 4856 
L 1984 4856 
z
" transform="scale(0.015625)"/>
       <path id="DejaVuSans-25" d="M 4653 2053 
Q 4381 2053 4226 1822 
Q 4072 1591 4072 1178 
Q 4072 772 4226 539 
Q 4381 306 4653 306 
Q 4919 306 5073 539 
Q 5228 772 5228 1178 
Q 5228 1588 5073 1820 
Q 4919 2053 4653 2053 
z
M 4653 2450 
Q 5147 2450 5437 2106 
Q 5728 1763 5728 1178 
Q 5728 594 5436 251 
Q 5144 -91 4653 -91 
Q 4153 -91 3862 251 
Q 3572 594 3572 1178 
Q 3572 1766 3864 2108 
Q 4156 2450 4653 2450 
z
M 1428 4353 
Q 1159 4353 1004 4120 
Q 850 3888 850 3481 
Q 850 3069 1003 2837 
Q 1156 2606 1428 2606 
Q 1700 2606 1854 2837 
Q 2009 3069 2009 3481 
Q 2009 3884 1853 4118 
Q 1697 4353 1428 4353 
z
M 4250 4750 
L 4750 4750 
L 1831 -91 
L 1331 -91 
L 4250 4750 
z
M 1428 4750 
Q 1922 4750 2215 4408 
Q 2509 4066 2509 3481 
Q 2509 2891 2217 2550 
Q 1925 2209 1428 2209 
Q 931 2209 642 2551 
Q 353 2894 353 3481 
Q 353 4063 643 4406 
Q 934 4750 1428 4750 
z
" transform="scale(0.015625)"/>
       <path id="DejaVuSans-29" d="M 513 4856 
L 1013 4856 
Q 1481 4119 1714 3412 
Q 1947 2706 1947 2009 
Q 1947 1309 1714 600 
Q 1481 -109 1013 -844 
L 513 -844 
Q 928 -128 1133 580 
Q 1338 1288 1338 2009 
Q 1338 2731 1133 3434 
Q 928 4138 513 4856 
z
" transform="scale(0.015625)"/>
      </defs>
      <use xlink:href="#DejaVuSans-65"/>
      <use xlink:href="#DejaVuSans-64" transform="translate(61.523438 0)"/>
      <use xlink:href="#DejaVuSans-67" transform="translate(125 0)"/>
      <use xlink:href="#DejaVuSans-65" transform="translate(188.476562 0)"/>
      <use xlink:href="#DejaVuSans-73" transform="translate(250 0)"/>
      <use xlink:href="#DejaVuSans-20" transform="translate(302.099609 0)"/>
      <use xlink:href="#DejaVuSans-6d" transform="translate(333.886719 0)"/>
      <use xlink:href="#DejaVuSans-69" transform="translate(431.298828 0)"/>
      <use xlink:href="#DejaVuSans-73" transform="translate(459.082031 0)"/>
      <use xlink:href="#DejaVuSans-73" transform="translate(511.181641 0)"/>
      <use xlink:href="#DejaVuSans-69" transform="translate(563.28125 0)"/>
      <use xlink:href="#DejaVuSans-6e" transform="translate(591.064453 0)"/>
      <use xlink:href="#DejaVuSans-67" transform="translate(654.443359 0)"/>
      <use xlink:href="#DejaVuSans-20" transform="translate(717.919922 0)"/>
      <use xlink:href="#DejaVuSans-28" transform="translate(749.707031 0)"/>
      <use xlink:href="#DejaVuSans-25" transform="translate(788.720703 0)"/>
      <use xlink:href="#DejaVuSans-29" transform="translate(883.740234 0)"/>
     </g>
    </g>
   </g>
   <g id="matplotlib.axis_2">
    <g id="ytick_1">
     <g id="line2d_19">
      <path d="M 60.68 455.56 
L 411.32 455.56 
" clip-path="url(#p02dc9a88eb)" style="fill: none; stroke-dasharray: 0.8,1.32; stroke-dashoffset: 0; stroke: #d3d3d3; stroke-opacity: 0.7; stroke-width: 0.8"/>
     </g>
     <g id="line2d_20">
      <defs>
       <path id="mcd3588e052" d="M 0 0 
L -3.5 0 
" style="stroke: #000000; stroke-width: 0.8"/>
      </defs>
      <g>
       <use xlink:href="#mcd3588e052" x="60.68" y="455.56" style="stroke: #000000; stroke-width: 0.8"/>
      </g>
     </g>
     <g id="text_11">
      <!-- 0.00 -->
      <g transform="translate(31.414375 459.359219) scale(0.1 -0.1)">
       <defs>
        <path id="DejaVuSans-2e" d="M 684 794 
L 1344 794 
L 1344 0 
L 684 0 
L 684 794 
z
" transform="scale(0.015625)"/>
       </defs>
       <use xlink:href="#DejaVuSans-30"/>
       <use xlink:href="#DejaVuSans-2e" transform="translate(63.623047 0)"/>
       <use xlink:href="#DejaVuSans-30" transform="translate(95.410156 0)"/>
       <use xlink:href="#DejaVuSans-30" transform="translate(159.033203 0)"/>
      </g>
     </g>
    </g>
    <g id="ytick_2">
     <g id="line2d_21">
      <path d="M 60.68 378.476066 
L 411.32 378.476066 
" clip-path="url(#p02dc9a88eb)" style="fill: none; stroke-dasharray: 0.8,1.32; stroke-dashoffset: 0; stroke: #d3d3d3; stroke-opacity: 0.7; stroke-width: 0.8"/>
     </g>
     <g id="line2d_22">
      <g>
       <use xlink:href="#mcd3588e052" x="60.68" y="378.476066" style="stroke: #000000; stroke-width: 0.8"/>
      </g>
     </g>
     <g id="text_12">
      <!-- 0.02 -->
      <g transform="translate(31.414375 382.275285) scale(0.1 -0.1)">
       <use xlink:href="#DejaVuSans-30"/>
       <use xlink:href="#DejaVuSans-2e" transform="translate(63.623047 0)"/>
       <use xlink:href="#DejaVuSans-30" transform="translate(95.410156 0)"/>
       <use xlink:href="#DejaVuSans-32" transform="translate(159.033203 0)"/>
      </g>
     </g>
    </g>
    <g id="ytick_3">
     <g id="line2d_23">
      <path d="M 60.68 301.392132 
L 411.32 301.392132 
" clip-path="url(#p02dc9a88eb)" style="fill: none; stroke-dasharray: 0.8,1.32; stroke-dashoffset: 0; stroke: #d3d3d3; stroke-opacity: 0.7; stroke-width: 0.8"/>
     </g>
     <g id="line2d_24">
      <g>
       <use xlink:href="#mcd3588e052" x="60.68" y="301.392132" style="stroke: #000000; stroke-width: 0.8"/>
      </g>
     </g>
     <g id="text_13">
      <!-- 0.04 -->
      <g transform="translate(31.414375 305.19135) scale(0.1 -0.1)">
       <use xlink:href="#DejaVuSans-30"/>
       <use xlink:href="#DejaVuSans-2e" transform="translate(63.623047 0)"/>
       <use xlink:href="#DejaVuSans-30" transform="translate(95.410156 0)"/>
       <use xlink:href="#DejaVuSans-34" transform="translate(159.033203 0)"/>
      </g>
     </g>
    </g>
    <g id="ytick_4">
     <g id="line2d_25">
      <path d="M 60.68 224.308197 
L 411.32 224.308197 
" clip-path="url(#p02dc9a88eb)" style="fill: none; stroke-dasharray: 0.8,1.32; stroke-dashoffset: 0; stroke: #d3d3d3; stroke-opacity: 0.7; stroke-width: 0.8"/>
     </g>
     <g id="line2d_26">
      <g>
       <use xlink:href="#mcd3588e052" x="60.68" y="224.308197" style="stroke: #000000; stroke-width: 0.8"/>
      </g>
     </g>
     <g id="text_14">
      <!-- 0.06 -->
      <g transform="translate(31.414375 228.107416) scale(0.1 -0.1)">
       <use xlink:href="#DejaVuSans-30"/>
       <use xlink:href="#DejaVuSans-2e" transform="translate(63.623047 0)"/>
       <use xlink:href="#DejaVuSans-30" transform="translate(95.410156 0)"/>
       <use xlink:href="#DejaVuSans-36" transform="translate(159.033203 0)"/>
      </g>
     </g>
    </g>
    <g id="ytick_5">
     <g id="line2d_27">
      <path d="M 60.68 147.224263 
L 411.32 147.224263 
" clip-path="url(#p02dc9a88eb)" style="fill: none; stroke-dasharray: 0.8,1.32; stroke-dashoffset: 0; stroke: #d3d3d3; stroke-opacity: 0.7; stroke-width: 0.8"/>
     </g>
     <g id="line2d_28">
      <g>
       <use xlink:href="#mcd3588e052" x="60.68" y="147.224263" style="stroke: #000000; stroke-width: 0.8"/>
      </g>
     </g>
     <g id="text_15">
      <!-- 0.08 -->
      <g transform="translate(31.414375 151.023482) scale(0.1 -0.1)">
       <use xlink:href="#DejaVuSans-30"/>
       <use xlink:href="#DejaVuSans-2e" transform="translate(63.623047 0)"/>
       <use xlink:href="#DejaVuSans-30" transform="translate(95.410156 0)"/>
       <use xlink:href="#DejaVuSans-38" transform="translate(159.033203 0)"/>
      </g>
     </g>
    </g>
    <g id="ytick_6">
     <g id="line2d_29">
      <path d="M 60.68 70.140329 
L 411.32 70.140329 
" clip-path="url(#p02dc9a88eb)" style="fill: none; stroke-dasharray: 0.8,1.32; stroke-dashoffset: 0; stroke: #d3d3d3; stroke-opacity: 0.7; stroke-width: 0.8"/>
     </g>
     <g id="line2d_30">
      <g>
       <use xlink:href="#mcd3588e052" x="60.68" y="70.140329" style="stroke: #000000; stroke-width: 0.8"/>
      </g>
     </g>
     <g id="text_16">
      <!-- 0.10 -->
      <g transform="translate(31.414375 73.939548) scale(0.1 -0.1)">
       <use xlink:href="#DejaVuSans-30"/>
       <use xlink:href="#DejaVuSans-2e" transform="translate(63.623047 0)"/>
       <use xlink:href="#DejaVuSans-31" transform="translate(95.410156 0)"/>
       <use xlink:href="#DejaVuSans-30" transform="translate(159.033203 0)"/>
      </g>
     </g>
    </g>
    <g id="text_17">
     <!-- absolute deviation -->
     <g transform="translate(24.086875 321.6425) rotate(-90) scale(0.16 -0.16)">
      <defs>
       <path id="DejaVuSans-61" d="M 2194 1759 
Q 1497 1759 1228 1600 
Q 959 1441 959 1056 
Q 959 750 1161 570 
Q 1363 391 1709 391 
Q 2188 391 2477 730 
Q 2766 1069 2766 1631 
L 2766 1759 
L 2194 1759 
z
M 3341 1997 
L 3341 0 
L 2766 0 
L 2766 531 
Q 2569 213 2275 61 
Q 1981 -91 1556 -91 
Q 1019 -91 701 211 
Q 384 513 384 1019 
Q 384 1609 779 1909 
Q 1175 2209 1959 2209 
L 2766 2209 
L 2766 2266 
Q 2766 2663 2505 2880 
Q 2244 3097 1772 3097 
Q 1472 3097 1187 3025 
Q 903 2953 641 2809 
L 641 3341 
Q 956 3463 1253 3523 
Q 1550 3584 1831 3584 
Q 2591 3584 2966 3190 
Q 3341 2797 3341 1997 
z
" transform="scale(0.015625)"/>
       <path id="DejaVuSans-62" d="M 3116 1747 
Q 3116 2381 2855 2742 
Q 2594 3103 2138 3103 
Q 1681 3103 1420 2742 
Q 1159 2381 1159 1747 
Q 1159 1113 1420 752 
Q 1681 391 2138 391 
Q 2594 391 2855 752 
Q 3116 1113 3116 1747 
z
M 1159 2969 
Q 1341 3281 1617 3432 
Q 1894 3584 2278 3584 
Q 2916 3584 3314 3078 
Q 3713 2572 3713 1747 
Q 3713 922 3314 415 
Q 2916 -91 2278 -91 
Q 1894 -91 1617 61 
Q 1341 213 1159 525 
L 1159 0 
L 581 0 
L 581 4863 
L 1159 4863 
L 1159 2969 
z
" transform="scale(0.015625)"/>
       <path id="DejaVuSans-6f" d="M 1959 3097 
Q 1497 3097 1228 2736 
Q 959 2375 959 1747 
Q 959 1119 1226 758 
Q 1494 397 1959 397 
Q 2419 397 2687 759 
Q 2956 1122 2956 1747 
Q 2956 2369 2687 2733 
Q 2419 3097 1959 3097 
z
M 1959 3584 
Q 2709 3584 3137 3096 
Q 3566 2609 3566 1747 
Q 3566 888 3137 398 
Q 2709 -91 1959 -91 
Q 1206 -91 779 398 
Q 353 888 353 1747 
Q 353 2609 779 3096 
Q 1206 3584 1959 3584 
z
" transform="scale(0.015625)"/>
       <path id="DejaVuSans-6c" d="M 603 4863 
L 1178 4863 
L 1178 0 
L 603 0 
L 603 4863 
z
" transform="scale(0.015625)"/>
       <path id="DejaVuSans-75" d="M 544 1381 
L 544 3500 
L 1119 3500 
L 1119 1403 
Q 1119 906 1312 657 
Q 1506 409 1894 409 
Q 2359 409 2629 706 
Q 2900 1003 2900 1516 
L 2900 3500 
L 3475 3500 
L 3475 0 
L 2900 0 
L 2900 538 
Q 2691 219 2414 64 
Q 2138 -91 1772 -91 
Q 1169 -91 856 284 
Q 544 659 544 1381 
z
M 1991 3584 
L 1991 3584 
z
" transform="scale(0.015625)"/>
       <path id="DejaVuSans-74" d="M 1172 4494 
L 1172 3500 
L 2356 3500 
L 2356 3053 
L 1172 3053 
L 1172 1153 
Q 1172 725 1289 603 
Q 1406 481 1766 481 
L 2356 481 
L 2356 0 
L 1766 0 
Q 1100 0 847 248 
Q 594 497 594 1153 
L 594 3053 
L 172 3053 
L 172 3500 
L 594 3500 
L 594 4494 
L 1172 4494 
z
" transform="scale(0.015625)"/>
       <path id="DejaVuSans-76" d="M 191 3500 
L 800 3500 
L 1894 563 
L 2988 3500 
L 3597 3500 
L 2284 0 
L 1503 0 
L 191 3500 
z
" transform="scale(0.015625)"/>
      </defs>
      <use xlink:href="#DejaVuSans-61"/>
      <use xlink:href="#DejaVuSans-62" transform="translate(61.279297 0)"/>
      <use xlink:href="#DejaVuSans-73" transform="translate(124.755859 0)"/>
      <use xlink:href="#DejaVuSans-6f" transform="translate(176.855469 0)"/>
      <use xlink:href="#DejaVuSans-6c" transform="translate(238.037109 0)"/>
      <use xlink:href="#DejaVuSans-75" transform="translate(265.820312 0)"/>
      <use xlink:href="#DejaVuSans-74" transform="translate(329.199219 0)"/>
      <use xlink:href="#DejaVuSans-65" transform="translate(368.408203 0)"/>
      <use xlink:href="#DejaVuSans-20" transform="translate(429.931641 0)"/>
      <use xlink:href="#DejaVuSans-64" transform="translate(461.71875 0)"/>
      <use xlink:href="#DejaVuSans-65" transform="translate(525.195312 0)"/>
      <use xlink:href="#DejaVuSans-76" transform="translate(586.71875 0)"/>
      <use xlink:href="#DejaVuSans-69" transform="translate(645.898438 0)"/>
      <use xlink:href="#DejaVuSans-61" transform="translate(673.681641 0)"/>
      <use xlink:href="#DejaVuSans-74" transform="translate(734.960938 0)"/>
      <use xlink:href="#DejaVuSans-69" transform="translate(774.169922 0)"/>
      <use xlink:href="#DejaVuSans-6f" transform="translate(801.953125 0)"/>
      <use xlink:href="#DejaVuSans-6e" transform="translate(863.134766 0)"/>
     </g>
    </g>
   </g>
   <g id="line2d_31">
    <path d="M 76.618182 435.577822 
L 92.24872 426.906224 
L 107.879259 417.097185 
L 123.39815 410.827542 
L 139.028689 402.93187 
L 154.659227 396.429614 
L 170.122295 392.231862 
L 185.69701 387.600307 
L 201.327549 381.639876 
L 216.902264 374.371685 
L 232.532802 370.394953 
L 248.107517 364.618441 
L 263.570586 356.582813 
L 279.201124 351.580434 
L 294.831662 342.971121 
L 310.350554 338.894071 
L 325.981092 332.727183 
L 341.611631 327.025588 
L 357.409639 316.273194 
" clip-path="url(#p02dc9a88eb)" style="fill: none; stroke: #08519c; stroke-width: 2.5; stroke-linecap: square"/>
   </g>
   <g id="line2d_32">
    <path d="M 76.618182 403.63062 
L 92.24872 379.750219 
L 107.879259 359.7919 
L 123.39815 343.416618 
L 139.028689 318.101437 
L 154.659227 304.431981 
L 170.122295 300.346226 
L 185.69701 277.645886 
L 201.327549 259.956278 
L 216.902264 241.078717 
L 232.532802 234.574038 
L 248.107517 218.159305 
L 263.570586 207.510258 
L 279.201124 194.299326 
L 294.831662 166.804018 
L 310.350554 159.146219 
L 325.981092 148.048603 
L 341.611631 124.743108 
L 357.409639 84.920969 
" clip-path="url(#p02dc9a88eb)" style="fill: none; stroke-dasharray: 5.55,2.4; stroke-dashoffset: 0; stroke: #08519c; stroke-width: 1.5"/>
   </g>
   <g id="line2d_33">
    <path d="M 76.618182 432.247764 
L 92.24872 418.959056 
L 107.879259 409.776841 
L 123.39815 400.352836 
L 139.028689 395.538728 
L 154.659227 388.849026 
L 170.122295 381.24279 
L 185.69701 374.189052 
L 201.327549 366.926169 
L 216.902264 359.092455 
L 232.532802 348.92526 
L 248.107517 344.56246 
L 263.570586 334.628825 
L 279.201124 327.933179 
L 294.831662 317.42046 
L 310.350554 308.481086 
L 325.981092 302.52987 
L 341.611631 293.232004 
L 357.409639 283.561945 
" clip-path="url(#p02dc9a88eb)" style="fill: none; stroke: #969696; stroke-width: 2.5; stroke-linecap: square"/>
   </g>
   <g id="line2d_34">
    <path d="M 76.618182 397.784775 
L 92.24872 373.291145 
L 107.879259 340.952163 
L 123.39815 311.644491 
L 139.028689 305.540291 
L 154.659227 294.11042 
L 170.122295 274.935722 
L 185.69701 250.691045 
L 201.327549 240.92506 
L 216.902264 220.414702 
L 232.532802 186.292575 
L 248.107517 183.633126 
L 263.570586 159.583946 
L 279.201124 138.573905 
L 294.831662 110.979745 
L 310.350554 108.905833 
L 325.981092 87.020329 
L 341.611631 71.195276 
L 357.409639 58.341801 
" clip-path="url(#p02dc9a88eb)" style="fill: none; stroke-dasharray: 5.55,2.4; stroke-dashoffset: 0; stroke: #969696; stroke-width: 1.5"/>
   </g>
   <g id="line2d_35">
    <path d="M 76.618182 435.320711 
L 92.24872 427.246901 
L 107.879259 419.822796 
L 123.39815 412.749471 
L 139.028689 406.498864 
L 154.659227 399.376405 
L 170.122295 392.887197 
L 185.69701 386.50374 
L 201.327549 381.15612 
L 216.902264 374.589656 
L 232.532802 366.749787 
L 248.107517 361.303951 
L 263.570586 355.116877 
L 279.201124 349.34176 
L 294.831662 343.533474 
L 310.350554 339.700894 
L 325.981092 333.064782 
L 341.611631 325.999434 
L 357.409639 319.005567 
" clip-path="url(#p02dc9a88eb)" style="fill: none; stroke: #a50f15; stroke-width: 2.5; stroke-linecap: square"/>
   </g>
   <g id="line2d_36">
    <path d="M 76.618182 404.095934 
L 92.24872 382.588628 
L 107.879259 365.238326 
L 123.39815 346.568376 
L 139.028689 328.086788 
L 154.659227 311.374435 
L 170.122295 288.878124 
L 185.69701 270.606032 
L 201.327549 263.586395 
L 216.902264 256.981945 
L 232.532802 232.120834 
L 248.107517 217.027363 
L 263.570586 200.629295 
L 279.201124 176.411814 
L 294.831662 177.724211 
L 310.350554 154.408919 
L 325.981092 148.290397 
L 341.611631 134.379591 
L 357.409639 114.869654 
" clip-path="url(#p02dc9a88eb)" style="fill: none; stroke-dasharray: 5.55,2.4; stroke-dashoffset: 0; stroke: #a50f15; stroke-width: 1.5"/>
   </g>
   <g id="patch_3">
    <path d="M 60.68 455.56 
L 60.68 39.48 
" style="fill: none; stroke: #000000; stroke-width: 0.8; stroke-linejoin: miter; stroke-linecap: square"/>
   </g>
   <g id="patch_4">
    <path d="M 60.68 455.56 
L 411.32 455.56 
" style="fill: none; stroke: #000000; stroke-width: 0.8; stroke-linejoin: miter; stroke-linecap: square"/>
   </g>
   <g id="text_18">
    <!-- Square -->
    <g transform="translate(204.318594 24.48) scale(0.18 -0.18)">
     <defs>
      <path id="DejaVuSans-53" d="M 3425 4513 
L 3425 3897 
Q 3066 4069 2747 4153 
Q 2428 4238 2131 4238 
Q 1616 4238 1336 4038 
Q 1056 3838 1056 3469 
Q 1056 3159 1242 3001 
Q 1428 2844 1947 2747 
L 2328 2669 
Q 3034 2534 3370 2195 
Q 3706 1856 3706 1288 
Q 3706 609 3251 259 
Q 2797 -91 1919 -91 
Q 1588 -91 1214 -16 
Q 841 59 441 206 
L 441 856 
Q 825 641 1194 531 
Q 1563 422 1919 422 
Q 2459 422 2753 634 
Q 3047 847 3047 1241 
Q 3047 1584 2836 1778 
Q 2625 1972 2144 2069 
L 1759 2144 
Q 1053 2284 737 2584 
Q 422 2884 422 3419 
Q 422 4038 858 4394 
Q 1294 4750 2059 4750 
Q 2388 4750 2728 4690 
Q 3069 4631 3425 4513 
z
" transform="scale(0.015625)"/>
      <path id="DejaVuSans-71" d="M 947 1747 
Q 947 1113 1208 752 
Q 1469 391 1925 391 
Q 2381 391 2643 752 
Q 2906 1113 2906 1747 
Q 2906 2381 2643 2742 
Q 2381 3103 1925 3103 
Q 1469 3103 1208 2742 
Q 947 2381 947 1747 
z
M 2906 525 
Q 2725 213 2448 61 
Q 2172 -91 1784 -91 
Q 1150 -91 751 415 
Q 353 922 353 1747 
Q 353 2572 751 3078 
Q 1150 3584 1784 3584 
Q 2172 3584 2448 3432 
Q 2725 3281 2906 2969 
L 2906 3500 
L 3481 3500 
L 3481 -1331 
L 2906 -1331 
L 2906 525 
z
" transform="scale(0.015625)"/>
      <path id="DejaVuSans-72" d="M 2631 2963 
Q 2534 3019 2420 3045 
Q 2306 3072 2169 3072 
Q 1681 3072 1420 2755 
Q 1159 2438 1159 1844 
L 1159 0 
L 581 0 
L 581 3500 
L 1159 3500 
L 1159 2956 
Q 1341 3275 1631 3429 
Q 1922 3584 2338 3584 
Q 2397 3584 2469 3576 
Q 2541 3569 2628 3553 
L 2631 2963 
z
" transform="scale(0.015625)"/>
     </defs>
     <use xlink:href="#DejaVuSans-53"/>
     <use xlink:href="#DejaVuSans-71" transform="translate(63.476562 0)"/>
     <use xlink:href="#DejaVuSans-75" transform="translate(126.953125 0)"/>
     <use xlink:href="#DejaVuSans-61" transform="translate(190.332031 0)"/>
     <use xlink:href="#DejaVuSans-72" transform="translate(251.611328 0)"/>
     <use xlink:href="#DejaVuSans-65" transform="translate(290.474609 0)"/>
    </g>
   </g>
   <g id="legend_1">
    <g id="line2d_37">
     <path d="M 78.4928 134.253325 
L 90.4928 134.253325 
L 102.4928 134.253325 
" style="fill: none; stroke: #000000; stroke-width: 2.5; stroke-linecap: square"/>
    </g>
    <g id="text_19">
     <!-- mean -->
     <g transform="translate(112.0928 138.453325) scale(0.12 -0.12)">
      <use xlink:href="#DejaVuSans-6d"/>
      <use xlink:href="#DejaVuSans-65" transform="translate(97.412109 0)"/>
      <use xlink:href="#DejaVuSans-61" transform="translate(158.935547 0)"/>
      <use xlink:href="#DejaVuSans-6e" transform="translate(220.214844 0)"/>
     </g>
    </g>
    <g id="line2d_38">
     <path d="M 78.4928 151.867075 
L 90.4928 151.867075 
L 102.4928 151.867075 
" style="fill: none; stroke-dasharray: 5.55,2.4; stroke-dashoffset: 0; stroke: #000000; stroke-width: 1.5"/>
    </g>
    <g id="text_20">
     <!-- upper 95% interval -->
     <g transform="translate(112.0928 156.067075) scale(0.12 -0.12)">
      <defs>
       <path id="DejaVuSans-70" d="M 1159 525 
L 1159 -1331 
L 581 -1331 
L 581 3500 
L 1159 3500 
L 1159 2969 
Q 1341 3281 1617 3432 
Q 1894 3584 2278 3584 
Q 2916 3584 3314 3078 
Q 3713 2572 3713 1747 
Q 3713 922 3314 415 
Q 2916 -91 2278 -91 
Q 1894 -91 1617 61 
Q 1341 213 1159 525 
z
M 3116 1747 
Q 3116 2381 2855 2742 
Q 2594 3103 2138 3103 
Q 1681 3103 1420 2742 
Q 1159 2381 1159 1747 
Q 1159 1113 1420 752 
Q 1681 391 2138 391 
Q 2594 391 2855 752 
Q 3116 1113 3116 1747 
z
" transform="scale(0.015625)"/>
       <path id="DejaVuSans-39" d="M 703 97 
L 703 672 
Q 941 559 1184 500 
Q 1428 441 1663 441 
Q 2288 441 2617 861 
Q 2947 1281 2994 2138 
Q 2813 1869 2534 1725 
Q 2256 1581 1919 1581 
Q 1219 1581 811 2004 
Q 403 2428 403 3163 
Q 403 3881 828 4315 
Q 1253 4750 1959 4750 
Q 2769 4750 3195 4129 
Q 3622 3509 3622 2328 
Q 3622 1225 3098 567 
Q 2575 -91 1691 -91 
Q 1453 -91 1209 -44 
Q 966 3 703 97 
z
M 1959 2075 
Q 2384 2075 2632 2365 
Q 2881 2656 2881 3163 
Q 2881 3666 2632 3958 
Q 2384 4250 1959 4250 
Q 1534 4250 1286 3958 
Q 1038 3666 1038 3163 
Q 1038 2656 1286 2365 
Q 1534 2075 1959 2075 
z
" transform="scale(0.015625)"/>
      </defs>
      <use xlink:href="#DejaVuSans-75"/>
      <use xlink:href="#DejaVuSans-70" transform="translate(63.378906 0)"/>
      <use xlink:href="#DejaVuSans-70" transform="translate(126.855469 0)"/>
      <use xlink:href="#DejaVuSans-65" transform="translate(190.332031 0)"/>
      <use xlink:href="#DejaVuSans-72" transform="translate(251.855469 0)"/>
      <use xlink:href="#DejaVuSans-20" transform="translate(292.96875 0)"/>
      <use xlink:href="#DejaVuSans-39" transform="translate(324.755859 0)"/>
      <use xlink:href="#DejaVuSans-35" transform="translate(388.378906 0)"/>
      <use xlink:href="#DejaVuSans-25" transform="translate(452.001953 0)"/>
      <use xlink:href="#DejaVuSans-20" transform="translate(547.021484 0)"/>
      <use xlink:href="#DejaVuSans-69" transform="translate(578.808594 0)"/>
      <use xlink:href="#DejaVuSans-6e" transform="translate(606.591797 0)"/>
      <use xlink:href="#DejaVuSans-74" transform="translate(669.970703 0)"/>
      <use xlink:href="#DejaVuSans-65" transform="translate(709.179688 0)"/>
      <use xlink:href="#DejaVuSans-72" transform="translate(770.703125 0)"/>
      <use xlink:href="#DejaVuSans-76" transform="translate(811.816406 0)"/>
      <use xlink:href="#DejaVuSans-61" transform="translate(870.996094 0)"/>
      <use xlink:href="#DejaVuSans-6c" transform="translate(932.275391 0)"/>
     </g>
    </g>
   </g>
   <g id="legend_2">
    <g id="text_21">
     <!-- True Moran's I -->
     <g transform="translate(78.4928 59.398125) scale(0.12 -0.12)">
      <defs>
       <path id="DejaVuSans-54" d="M -19 4666 
L 3928 4666 
L 3928 4134 
L 2272 4134 
L 2272 0 
L 1638 0 
L 1638 4134 
L -19 4134 
L -19 4666 
z
" transform="scale(0.015625)"/>
       <path id="DejaVuSans-4d" d="M 628 4666 
L 1569 4666 
L 2759 1491 
L 3956 4666 
L 4897 4666 
L 4897 0 
L 4281 0 
L 4281 4097 
L 3078 897 
L 2444 897 
L 1241 4097 
L 1241 0 
L 628 0 
L 628 4666 
z
" transform="scale(0.015625)"/>
       <path id="DejaVuSans-27" d="M 1147 4666 
L 1147 2931 
L 616 2931 
L 616 4666 
L 1147 4666 
z
" transform="scale(0.015625)"/>
       <path id="DejaVuSans-49" d="M 628 4666 
L 1259 4666 
L 1259 0 
L 628 0 
L 628 4666 
z
" transform="scale(0.015625)"/>
      </defs>
      <use xlink:href="#DejaVuSans-54"/>
      <use xlink:href="#DejaVuSans-72" transform="translate(46.333984 0)"/>
      <use xlink:href="#DejaVuSans-75" transform="translate(87.447266 0)"/>
      <use xlink:href="#DejaVuSans-65" transform="translate(150.826172 0)"/>
      <use xlink:href="#DejaVuSans-20" transform="translate(212.349609 0)"/>
      <use xlink:href="#DejaVuSans-4d" transform="translate(244.136719 0)"/>
      <use xlink:href="#DejaVuSans-6f" transform="translate(330.416016 0)"/>
      <use xlink:href="#DejaVuSans-72" transform="translate(391.597656 0)"/>
      <use xlink:href="#DejaVuSans-61" transform="translate(432.710938 0)"/>
      <use xlink:href="#DejaVuSans-6e" transform="translate(493.990234 0)"/>
      <use xlink:href="#DejaVuSans-27" transform="translate(557.369141 0)"/>
      <use xlink:href="#DejaVuSans-73" transform="translate(584.859375 0)"/>
      <use xlink:href="#DejaVuSans-20" transform="translate(636.958984 0)"/>
      <use xlink:href="#DejaVuSans-49" transform="translate(668.746094 0)"/>
     </g>
    </g>
    <g id="line2d_39">
     <path d="M 78.4928 72.811875 
L 90.4928 72.811875 
L 102.4928 72.811875 
" style="fill: none; stroke: #08519c; stroke-width: 4; stroke-linecap: square"/>
    </g>
    <g id="text_22">
     <!-- &lt; -0.1 -->
     <g transform="translate(112.0928 77.011875) scale(0.12 -0.12)">
      <defs>
       <path id="DejaVuSans-3c" d="M 4684 3150 
L 1459 2003 
L 4684 863 
L 4684 294 
L 678 1747 
L 678 2266 
L 4684 3719 
L 4684 3150 
z
" transform="scale(0.015625)"/>
       <path id="DejaVuSans-2d" d="M 313 2009 
L 1997 2009 
L 1997 1497 
L 313 1497 
L 313 2009 
z
" transform="scale(0.015625)"/>
      </defs>
      <use xlink:href="#DejaVuSans-3c"/>
      <use xlink:href="#DejaVuSans-20" transform="translate(83.789062 0)"/>
      <use xlink:href="#DejaVuSans-2d" transform="translate(115.576172 0)"/>
      <use xlink:href="#DejaVuSans-30" transform="translate(151.660156 0)"/>
      <use xlink:href="#DejaVuSans-2e" transform="translate(215.283203 0)"/>
      <use xlink:href="#DejaVuSans-31" transform="translate(247.070312 0)"/>
     </g>
    </g>
    <g id="line2d_40">
     <path d="M 78.4928 90.425625 
L 90.4928 90.425625 
L 102.4928 90.425625 
" style="fill: none; stroke: #969696; stroke-width: 4; stroke-linecap: square"/>
    </g>
    <g id="text_23">
     <!-- -0.1 to 0.1 -->
     <g transform="translate(112.0928 94.625625) scale(0.12 -0.12)">
      <use xlink:href="#DejaVuSans-2d"/>
      <use xlink:href="#DejaVuSans-30" transform="translate(36.083984 0)"/>
      <use xlink:href="#DejaVuSans-2e" transform="translate(99.707031 0)"/>
      <use xlink:href="#DejaVuSans-31" transform="translate(131.494141 0)"/>
      <use xlink:href="#DejaVuSans-20" transform="translate(195.117188 0)"/>
      <use xlink:href="#DejaVuSans-74" transform="translate(226.904297 0)"/>
      <use xlink:href="#DejaVuSans-6f" transform="translate(266.113281 0)"/>
      <use xlink:href="#DejaVuSans-20" transform="translate(327.294922 0)"/>
      <use xlink:href="#DejaVuSans-30" transform="translate(359.082031 0)"/>
      <use xlink:href="#DejaVuSans-2e" transform="translate(422.705078 0)"/>
      <use xlink:href="#DejaVuSans-31" transform="translate(454.492188 0)"/>
     </g>
    </g>
    <g id="line2d_41">
     <path d="M 78.4928 108.039375 
L 90.4928 108.039375 
L 102.4928 108.039375 
" style="fill: none; stroke: #a50f15; stroke-width: 4; stroke-linecap: square"/>
    </g>
    <g id="text_24">
     <!-- &gt; 0.1 -->
     <g transform="translate(112.0928 112.239375) scale(0.12 -0.12)">
      <defs>
       <path id="DejaVuSans-3e" d="M 678 3150 
L 678 3719 
L 4684 2266 
L 4684 1747 
L 678 294 
L 678 863 
L 3897 2003 
L 678 3150 
z
" transform="scale(0.015625)"/>
      </defs>
      <use xlink:href="#DejaVuSans-3e"/>
      <use xlink:href="#DejaVuSans-20" transform="translate(83.789062 0)"/>
      <use xlink:href="#DejaVuSans-30" transform="translate(115.576172 0)"/>
      <use xlink:href="#DejaVuSans-2e" transform="translate(179.199219 0)"/>
      <use xlink:href="#DejaVuSans-31" transform="translate(210.986328 0)"/>
     </g>
    </g>
   </g>
  </g>
  <g id="axes_2">
   <g id="patch_5">
    <path d="M 425.62 455.56 
L 776.26 455.56 
L 776.26 39.48 
L 425.62 39.48 
z
" style="fill: #ffffff"/>
   </g>
   <g id="FillBetweenPolyCollection_4">
    <defs>
     <path id="m0fce82c6fc" d="M 442.775606 -99.829439 
L 442.775606 -69.966495 
L 459.475102 -80.034309 
L 476.174598 -87.234848 
L 492.874094 -93.596659 
L 509.618724 -102.936894 
L 526.318221 -108.641311 
L 542.972583 -117.560591 
L 559.672079 -126.495586 
L 576.371575 -136.076251 
L 593.206473 -143.063082 
L 609.905969 -152.638022 
L 626.605465 -159.026755 
L 643.259828 -168.000165 
L 659.959324 -175.384624 
L 676.703954 -183.416623 
L 693.40345 -190.611936 
L 710.102946 -199.602995 
L 726.802442 -209.192239 
L 743.772741 -224.396037 
L 743.772741 -478.647484 
L 743.772741 -478.647484 
L 726.802442 -443.66946 
L 710.102946 -415.323942 
L 693.40345 -404.605867 
L 676.703954 -377.923739 
L 659.959324 -352.02761 
L 643.259828 -335.776993 
L 626.605465 -317.798314 
L 609.905969 -300.312579 
L 593.206473 -274.951922 
L 576.371575 -263.456773 
L 559.672079 -241.074276 
L 542.972583 -221.534904 
L 526.318221 -200.818809 
L 509.618724 -183.708533 
L 492.874094 -161.82506 
L 476.174598 -140.118057 
L 459.475102 -125.7446 
L 442.775606 -99.829439 
z
"/>
    </defs>
    <g clip-path="url(#p5a81b6c03a)">
     <use xlink:href="#m0fce82c6fc" x="0" y="504" style="fill: #08519c; fill-opacity: 0.15"/>
    </g>
   </g>
   <g id="FillBetweenPolyCollection_5">
    <defs>
     <path id="mdcc4264d6d" d="M 442.775606 -106.464147 
L 442.775606 -70.578857 
L 459.475102 -80.300538 
L 476.174598 -91.334857 
L 492.874094 -99.481073 
L 509.618724 -106.783509 
L 526.318221 -111.602399 
L 542.972583 -118.925988 
L 559.672079 -126.527702 
L 576.371575 -135.492954 
L 593.206473 -143.837946 
L 609.905969 -149.137294 
L 626.605465 -157.303485 
L 643.259828 -165.083923 
L 659.959324 -169.329219 
L 676.703954 -182.438742 
L 693.40345 -193.416959 
L 710.102946 -203.364121 
L 726.802442 -214.729728 
L 743.772741 -228.693181 
L 743.772741 -463.637786 
L 743.772741 -463.637786 
L 726.802442 -423.300321 
L 710.102946 -425.183237 
L 693.40345 -406.30545 
L 676.703954 -365.667656 
L 659.959324 -347.294099 
L 643.259828 -323.090908 
L 626.605465 -306.36525 
L 609.905969 -282.829056 
L 593.206473 -266.28235 
L 576.371575 -244.2363 
L 559.672079 -233.125883 
L 542.972583 -213.115652 
L 526.318221 -195.182893 
L 509.618724 -182.314118 
L 492.874094 -168.539576 
L 476.174598 -150.934106 
L 459.475102 -125.768517 
L 442.775606 -106.464147 
z
"/>
    </defs>
    <g clip-path="url(#p5a81b6c03a)">
     <use xlink:href="#mdcc4264d6d" x="0" y="504" style="fill: #969696; fill-opacity: 0.15"/>
    </g>
   </g>
   <g id="FillBetweenPolyCollection_6">
    <defs>
     <path id="m1c2a27431f" d="M 442.775606 -92.429225 
L 442.775606 -65.253645 
L 459.475102 -73.056698 
L 476.174598 -80.029648 
L 492.874094 -87.803475 
L 509.618724 -93.274292 
L 526.318221 -98.312941 
L 542.972583 -104.124509 
L 559.672079 -109.887859 
L 576.371575 -116.584978 
L 593.206473 -122.206075 
L 609.905969 -130.1629 
L 626.605465 -135.362951 
L 643.259828 -143.053011 
L 659.959324 -148.971198 
L 676.703954 -156.459585 
L 693.40345 -165.690645 
L 710.102946 -171.587539 
L 726.802442 -177.067352 
L 743.772741 -185.826964 
L 743.772741 -414.712537 
L 743.772741 -414.712537 
L 726.802442 -391.082307 
L 710.102946 -377.204094 
L 693.40345 -344.174727 
L 676.703954 -323.869532 
L 659.959324 -298.206571 
L 643.259828 -285.655375 
L 626.605465 -260.429911 
L 609.905969 -259.974434 
L 593.206473 -226.877061 
L 576.371575 -208.989166 
L 559.672079 -203.479611 
L 542.972583 -187.016953 
L 526.318221 -173.773704 
L 509.618724 -163.589666 
L 492.874094 -150.711067 
L 476.174598 -128.010902 
L 459.475102 -113.174586 
L 442.775606 -92.429225 
z
"/>
    </defs>
    <g clip-path="url(#p5a81b6c03a)">
     <use xlink:href="#m1c2a27431f" x="0" y="504" style="fill: #a50f15; fill-opacity: 0.15"/>
    </g>
   </g>
   <g id="matplotlib.axis_3">
    <g id="xtick_10">
     <g id="line2d_42">
      <path d="M 425.760173 455.56 
L 425.760173 39.48 
" clip-path="url(#p5a81b6c03a)" style="fill: none; stroke-dasharray: 0.8,1.32; stroke-dashoffset: 0; stroke: #d3d3d3; stroke-opacity: 0.7; stroke-width: 0.8"/>
     </g>
     <g id="line2d_43">
      <g>
       <use xlink:href="#m9805787ac4" x="425.760173" y="455.56" style="stroke: #000000; stroke-width: 0.8"/>
      </g>
     </g>
     <g id="text_25">
      <!-- 0 -->
      <g transform="translate(422.578923 470.158437) scale(0.1 -0.1)">
       <use xlink:href="#DejaVuSans-30"/>
      </g>
     </g>
    </g>
    <g id="xtick_11">
     <g id="line2d_44">
      <path d="M 468.18592 455.56 
L 468.18592 39.48 
" clip-path="url(#p5a81b6c03a)" style="fill: none; stroke-dasharray: 0.8,1.32; stroke-dashoffset: 0; stroke: #d3d3d3; stroke-opacity: 0.7; stroke-width: 0.8"/>
     </g>
     <g id="line2d_45">
      <g>
       <use xlink:href="#m9805787ac4" x="468.18592" y="455.56" style="stroke: #000000; stroke-width: 0.8"/>
      </g>
     </g>
     <g id="text_26">
      <!-- 10 -->
      <g transform="translate(461.82342 470.158437) scale(0.1 -0.1)">
       <use xlink:href="#DejaVuSans-31"/>
       <use xlink:href="#DejaVuSans-30" transform="translate(63.623047 0)"/>
      </g>
     </g>
    </g>
    <g id="xtick_12">
     <g id="line2d_46">
      <path d="M 510.611667 455.56 
L 510.611667 39.48 
" clip-path="url(#p5a81b6c03a)" style="fill: none; stroke-dasharray: 0.8,1.32; stroke-dashoffset: 0; stroke: #d3d3d3; stroke-opacity: 0.7; stroke-width: 0.8"/>
     </g>
     <g id="line2d_47">
      <g>
       <use xlink:href="#m9805787ac4" x="510.611667" y="455.56" style="stroke: #000000; stroke-width: 0.8"/>
      </g>
     </g>
     <g id="text_27">
      <!-- 20 -->
      <g transform="translate(504.249167 470.158437) scale(0.1 -0.1)">
       <use xlink:href="#DejaVuSans-32"/>
       <use xlink:href="#DejaVuSans-30" transform="translate(63.623047 0)"/>
      </g>
     </g>
    </g>
    <g id="xtick_13">
     <g id="line2d_48">
      <path d="M 553.037414 455.56 
L 553.037414 39.48 
" clip-path="url(#p5a81b6c03a)" style="fill: none; stroke-dasharray: 0.8,1.32; stroke-dashoffset: 0; stroke: #d3d3d3; stroke-opacity: 0.7; stroke-width: 0.8"/>
     </g>
     <g id="line2d_49">
      <g>
       <use xlink:href="#m9805787ac4" x="553.037414" y="455.56" style="stroke: #000000; stroke-width: 0.8"/>
      </g>
     </g>
     <g id="text_28">
      <!-- 30 -->
      <g transform="translate(546.674914 470.158437) scale(0.1 -0.1)">
       <use xlink:href="#DejaVuSans-33"/>
       <use xlink:href="#DejaVuSans-30" transform="translate(63.623047 0)"/>
      </g>
     </g>
    </g>
    <g id="xtick_14">
     <g id="line2d_50">
      <path d="M 595.463162 455.56 
L 595.463162 39.48 
" clip-path="url(#p5a81b6c03a)" style="fill: none; stroke-dasharray: 0.8,1.32; stroke-dashoffset: 0; stroke: #d3d3d3; stroke-opacity: 0.7; stroke-width: 0.8"/>
     </g>
     <g id="line2d_51">
      <g>
       <use xlink:href="#m9805787ac4" x="595.463162" y="455.56" style="stroke: #000000; stroke-width: 0.8"/>
      </g>
     </g>
     <g id="text_29">
      <!-- 40 -->
      <g transform="translate(589.100662 470.158437) scale(0.1 -0.1)">
       <use xlink:href="#DejaVuSans-34"/>
       <use xlink:href="#DejaVuSans-30" transform="translate(63.623047 0)"/>
      </g>
     </g>
    </g>
    <g id="xtick_15">
     <g id="line2d_52">
      <path d="M 637.888909 455.56 
L 637.888909 39.48 
" clip-path="url(#p5a81b6c03a)" style="fill: none; stroke-dasharray: 0.8,1.32; stroke-dashoffset: 0; stroke: #d3d3d3; stroke-opacity: 0.7; stroke-width: 0.8"/>
     </g>
     <g id="line2d_53">
      <g>
       <use xlink:href="#m9805787ac4" x="637.888909" y="455.56" style="stroke: #000000; stroke-width: 0.8"/>
      </g>
     </g>
     <g id="text_30">
      <!-- 50 -->
      <g transform="translate(631.526409 470.158437) scale(0.1 -0.1)">
       <use xlink:href="#DejaVuSans-35"/>
       <use xlink:href="#DejaVuSans-30" transform="translate(63.623047 0)"/>
      </g>
     </g>
    </g>
    <g id="xtick_16">
     <g id="line2d_54">
      <path d="M 680.314656 455.56 
L 680.314656 39.48 
" clip-path="url(#p5a81b6c03a)" style="fill: none; stroke-dasharray: 0.8,1.32; stroke-dashoffset: 0; stroke: #d3d3d3; stroke-opacity: 0.7; stroke-width: 0.8"/>
     </g>
     <g id="line2d_55">
      <g>
       <use xlink:href="#m9805787ac4" x="680.314656" y="455.56" style="stroke: #000000; stroke-width: 0.8"/>
      </g>
     </g>
     <g id="text_31">
      <!-- 60 -->
      <g transform="translate(673.952156 470.158437) scale(0.1 -0.1)">
       <use xlink:href="#DejaVuSans-36"/>
       <use xlink:href="#DejaVuSans-30" transform="translate(63.623047 0)"/>
      </g>
     </g>
    </g>
    <g id="xtick_17">
     <g id="line2d_56">
      <path d="M 722.740403 455.56 
L 722.740403 39.48 
" clip-path="url(#p5a81b6c03a)" style="fill: none; stroke-dasharray: 0.8,1.32; stroke-dashoffset: 0; stroke: #d3d3d3; stroke-opacity: 0.7; stroke-width: 0.8"/>
     </g>
     <g id="line2d_57">
      <g>
       <use xlink:href="#m9805787ac4" x="722.740403" y="455.56" style="stroke: #000000; stroke-width: 0.8"/>
      </g>
     </g>
     <g id="text_32">
      <!-- 70 -->
      <g transform="translate(716.377903 470.158437) scale(0.1 -0.1)">
       <use xlink:href="#DejaVuSans-37"/>
       <use xlink:href="#DejaVuSans-30" transform="translate(63.623047 0)"/>
      </g>
     </g>
    </g>
    <g id="xtick_18">
     <g id="line2d_58">
      <path d="M 765.16615 455.56 
L 765.16615 39.48 
" clip-path="url(#p5a81b6c03a)" style="fill: none; stroke-dasharray: 0.8,1.32; stroke-dashoffset: 0; stroke: #d3d3d3; stroke-opacity: 0.7; stroke-width: 0.8"/>
     </g>
     <g id="line2d_59">
      <g>
       <use xlink:href="#m9805787ac4" x="765.16615" y="455.56" style="stroke: #000000; stroke-width: 0.8"/>
      </g>
     </g>
     <g id="text_33">
      <!-- 80 -->
      <g transform="translate(758.80365 470.158437) scale(0.1 -0.1)">
       <use xlink:href="#DejaVuSans-38"/>
       <use xlink:href="#DejaVuSans-30" transform="translate(63.623047 0)"/>
      </g>
     </g>
    </g>
    <g id="text_34">
     <!-- edges missing (%) -->
     <g transform="translate(527.12 488.395625) scale(0.16 -0.16)">
      <use xlink:href="#DejaVuSans-65"/>
      <use xlink:href="#DejaVuSans-64" transform="translate(61.523438 0)"/>
      <use xlink:href="#DejaVuSans-67" transform="translate(125 0)"/>
      <use xlink:href="#DejaVuSans-65" transform="translate(188.476562 0)"/>
      <use xlink:href="#DejaVuSans-73" transform="translate(250 0)"/>
      <use xlink:href="#DejaVuSans-20" transform="translate(302.099609 0)"/>
      <use xlink:href="#DejaVuSans-6d" transform="translate(333.886719 0)"/>
      <use xlink:href="#DejaVuSans-69" transform="translate(431.298828 0)"/>
      <use xlink:href="#DejaVuSans-73" transform="translate(459.082031 0)"/>
      <use xlink:href="#DejaVuSans-73" transform="translate(511.181641 0)"/>
      <use xlink:href="#DejaVuSans-69" transform="translate(563.28125 0)"/>
      <use xlink:href="#DejaVuSans-6e" transform="translate(591.064453 0)"/>
      <use xlink:href="#DejaVuSans-67" transform="translate(654.443359 0)"/>
      <use xlink:href="#DejaVuSans-20" transform="translate(717.919922 0)"/>
      <use xlink:href="#DejaVuSans-28" transform="translate(749.707031 0)"/>
      <use xlink:href="#DejaVuSans-25" transform="translate(788.720703 0)"/>
      <use xlink:href="#DejaVuSans-29" transform="translate(883.740234 0)"/>
     </g>
    </g>
   </g>
   <g id="matplotlib.axis_4">
    <g id="ytick_7">
     <g id="line2d_60">
      <path d="M 425.62 455.56 
L 776.26 455.56 
" clip-path="url(#p5a81b6c03a)" style="fill: none; stroke-dasharray: 0.8,1.32; stroke-dashoffset: 0; stroke: #d3d3d3; stroke-opacity: 0.7; stroke-width: 0.8"/>
     </g>
     <g id="line2d_61">
      <g>
       <use xlink:href="#mcd3588e052" x="425.62" y="455.56" style="stroke: #000000; stroke-width: 0.8"/>
      </g>
     </g>
    </g>
    <g id="ytick_8">
     <g id="line2d_62">
      <path d="M 425.62 378.476066 
L 776.26 378.476066 
" clip-path="url(#p5a81b6c03a)" style="fill: none; stroke-dasharray: 0.8,1.32; stroke-dashoffset: 0; stroke: #d3d3d3; stroke-opacity: 0.7; stroke-width: 0.8"/>
     </g>
     <g id="line2d_63">
      <g>
       <use xlink:href="#mcd3588e052" x="425.62" y="378.476066" style="stroke: #000000; stroke-width: 0.8"/>
      </g>
     </g>
    </g>
    <g id="ytick_9">
     <g id="line2d_64">
      <path d="M 425.62 301.392132 
L 776.26 301.392132 
" clip-path="url(#p5a81b6c03a)" style="fill: none; stroke-dasharray: 0.8,1.32; stroke-dashoffset: 0; stroke: #d3d3d3; stroke-opacity: 0.7; stroke-width: 0.8"/>
     </g>
     <g id="line2d_65">
      <g>
       <use xlink:href="#mcd3588e052" x="425.62" y="301.392132" style="stroke: #000000; stroke-width: 0.8"/>
      </g>
     </g>
    </g>
    <g id="ytick_10">
     <g id="line2d_66">
      <path d="M 425.62 224.308197 
L 776.26 224.308197 
" clip-path="url(#p5a81b6c03a)" style="fill: none; stroke-dasharray: 0.8,1.32; stroke-dashoffset: 0; stroke: #d3d3d3; stroke-opacity: 0.7; stroke-width: 0.8"/>
     </g>
     <g id="line2d_67">
      <g>
       <use xlink:href="#mcd3588e052" x="425.62" y="224.308197" style="stroke: #000000; stroke-width: 0.8"/>
      </g>
     </g>
    </g>
    <g id="ytick_11">
     <g id="line2d_68">
      <path d="M 425.62 147.224263 
L 776.26 147.224263 
" clip-path="url(#p5a81b6c03a)" style="fill: none; stroke-dasharray: 0.8,1.32; stroke-dashoffset: 0; stroke: #d3d3d3; stroke-opacity: 0.7; stroke-width: 0.8"/>
     </g>
     <g id="line2d_69">
      <g>
       <use xlink:href="#mcd3588e052" x="425.62" y="147.224263" style="stroke: #000000; stroke-width: 0.8"/>
      </g>
     </g>
    </g>
    <g id="ytick_12">
     <g id="line2d_70">
      <path d="M 425.62 70.140329 
L 776.26 70.140329 
" clip-path="url(#p5a81b6c03a)" style="fill: none; stroke-dasharray: 0.8,1.32; stroke-dashoffset: 0; stroke: #d3d3d3; stroke-opacity: 0.7; stroke-width: 0.8"/>
     </g>
     <g id="line2d_71">
      <g>
       <use xlink:href="#mcd3588e052" x="425.62" y="70.140329" style="stroke: #000000; stroke-width: 0.8"/>
      </g>
     </g>
    </g>
   </g>
   <g id="line2d_72">
    <path d="M 442.775606 434.033505 
L 459.475102 423.965691 
L 476.174598 416.765152 
L 492.874094 410.403341 
L 509.618724 401.063106 
L 526.318221 395.358689 
L 542.972583 386.439409 
L 559.672079 377.504414 
L 576.371575 367.923749 
L 593.206473 360.936918 
L 609.905969 351.361978 
L 626.605465 344.973245 
L 643.259828 335.999835 
L 659.959324 328.615376 
L 676.703954 320.583377 
L 693.40345 313.388064 
L 710.102946 304.397005 
L 726.802442 294.807761 
L 743.772741 279.603963 
" clip-path="url(#p5a81b6c03a)" style="fill: none; stroke: #08519c; stroke-width: 2.5; stroke-linecap: square"/>
   </g>
   <g id="line2d_73">
    <path d="M 442.775606 404.170561 
L 459.475102 378.2554 
L 476.174598 363.881943 
L 492.874094 342.17494 
L 509.618724 320.291467 
L 526.318221 303.181191 
L 542.972583 282.465096 
L 559.672079 262.925724 
L 576.371575 240.543227 
L 593.206473 229.048078 
L 609.905969 203.687421 
L 626.605465 186.201686 
L 643.259828 168.223007 
L 659.959324 151.97239 
L 676.703954 126.076261 
L 693.40345 99.394133 
L 710.102946 88.676058 
L 726.802442 60.33054 
L 743.772741 25.352516 
" clip-path="url(#p5a81b6c03a)" style="fill: none; stroke-dasharray: 5.55,2.4; stroke-dashoffset: 0; stroke: #08519c; stroke-width: 1.5"/>
   </g>
   <g id="line2d_74">
    <path d="M 442.775606 433.421143 
L 459.475102 423.699462 
L 476.174598 412.665143 
L 492.874094 404.518927 
L 509.618724 397.216491 
L 526.318221 392.397601 
L 542.972583 385.074012 
L 559.672079 377.472298 
L 576.371575 368.507046 
L 593.206473 360.162054 
L 609.905969 354.862706 
L 626.605465 346.696515 
L 643.259828 338.916077 
L 659.959324 334.670781 
L 676.703954 321.561258 
L 693.40345 310.583041 
L 710.102946 300.635879 
L 726.802442 289.270272 
L 743.772741 275.306819 
" clip-path="url(#p5a81b6c03a)" style="fill: none; stroke: #969696; stroke-width: 2.5; stroke-linecap: square"/>
   </g>
   <g id="line2d_75">
    <path d="M 442.775606 397.535853 
L 459.475102 378.231483 
L 476.174598 353.065894 
L 492.874094 335.460424 
L 509.618724 321.685882 
L 526.318221 308.817107 
L 542.972583 290.884348 
L 559.672079 270.874117 
L 576.371575 259.7637 
L 593.206473 237.71765 
L 609.905969 221.170944 
L 626.605465 197.63475 
L 643.259828 180.909092 
L 659.959324 156.705901 
L 676.703954 138.332344 
L 693.40345 97.69455 
L 710.102946 78.816763 
L 726.802442 80.699679 
L 743.772741 40.362214 
" clip-path="url(#p5a81b6c03a)" style="fill: none; stroke-dasharray: 5.55,2.4; stroke-dashoffset: 0; stroke: #969696; stroke-width: 1.5"/>
   </g>
   <g id="line2d_76">
    <path d="M 442.775606 438.746355 
L 459.475102 430.943302 
L 476.174598 423.970352 
L 492.874094 416.196525 
L 509.618724 410.725708 
L 526.318221 405.687059 
L 542.972583 399.875491 
L 559.672079 394.112141 
L 576.371575 387.415022 
L 593.206473 381.793925 
L 609.905969 373.8371 
L 626.605465 368.637049 
L 643.259828 360.946989 
L 659.959324 355.028802 
L 676.703954 347.540415 
L 693.40345 338.309355 
L 710.102946 332.412461 
L 726.802442 326.932648 
L 743.772741 318.173036 
" clip-path="url(#p5a81b6c03a)" style="fill: none; stroke: #a50f15; stroke-width: 2.5; stroke-linecap: square"/>
   </g>
   <g id="line2d_77">
    <path d="M 442.775606 411.570775 
L 459.475102 390.825414 
L 476.174598 375.989098 
L 492.874094 353.288933 
L 509.618724 340.410334 
L 526.318221 330.226296 
L 542.972583 316.983047 
L 559.672079 300.520389 
L 576.371575 295.010834 
L 593.206473 277.122939 
L 609.905969 244.025566 
L 626.605465 243.570089 
L 643.259828 218.344625 
L 659.959324 205.793429 
L 676.703954 180.130468 
L 693.40345 159.825273 
L 710.102946 126.795906 
L 726.802442 112.917693 
L 743.772741 89.287463 
" clip-path="url(#p5a81b6c03a)" style="fill: none; stroke-dasharray: 5.55,2.4; stroke-dashoffset: 0; stroke: #a50f15; stroke-width: 1.5"/>
   </g>
   <g id="patch_6">
    <path d="M 425.62 455.56 
L 425.62 39.48 
" style="fill: none; stroke: #000000; stroke-width: 0.8; stroke-linejoin: miter; stroke-linecap: square"/>
   </g>
   <g id="patch_7">
    <path d="M 425.62 455.56 
L 776.26 455.56 
" style="fill: none; stroke: #000000; stroke-width: 0.8; stroke-linejoin: miter; stroke-linecap: square"/>
   </g>
   <g id="text_35">
    <!-- Pent -->
    <g transform="translate(581.069688 24.48) scale(0.18 -0.18)">
     <defs>
      <path id="DejaVuSans-50" d="M 1259 4147 
L 1259 2394 
L 2053 2394 
Q 2494 2394 2734 2622 
Q 2975 2850 2975 3272 
Q 2975 3691 2734 3919 
Q 2494 4147 2053 4147 
L 1259 4147 
z
M 628 4666 
L 2053 4666 
Q 2838 4666 3239 4311 
Q 3641 3956 3641 3272 
Q 3641 2581 3239 2228 
Q 2838 1875 2053 1875 
L 1259 1875 
L 1259 0 
L 628 0 
L 628 4666 
z
" transform="scale(0.015625)"/>
     </defs>
     <use xlink:href="#DejaVuSans-50"/>
     <use xlink:href="#DejaVuSans-65" transform="translate(56.677734 0)"/>
     <use xlink:href="#DejaVuSans-6e" transform="translate(118.201172 0)"/>
     <use xlink:href="#DejaVuSans-74" transform="translate(181.580078 0)"/>
    </g>
   </g>
  </g>
  <g id="axes_3">
   <g id="patch_8">
    <path d="M 790.56 455.56 
L 1141.2 455.56 
L 1141.2 39.48 
L 790.56 39.48 
z
" style="fill: #ffffff"/>
   </g>
   <g id="FillBetweenPolyCollection_7">
    <defs>
     <path id="m0180f4837f" d="M 808.487953 -102.127589 
L 808.487953 -70.004655 
L 826.086501 -80.451683 
L 843.647203 -89.032866 
L 861.283597 -93.300229 
L 878.844299 -101.297579 
L 896.442847 -108.659545 
L 913.965702 -116.44851 
L 931.639943 -121.136531 
L 949.124952 -127.282538 
L 966.837039 -133.177493 
L 984.322048 -139.683086 
L 1001.996289 -148.698 
L 1019.519144 -157.540966 
L 1037.117693 -167.623135 
L 1054.678394 -175.704429 
L 1072.314789 -188.062058 
L 1089.87549 -197.857211 
L 1107.474038 -212.051926 
L 1125.261818 -223.501446 
L 1125.261818 -492.557051 
L 1125.261818 -492.557051 
L 1107.474038 -454.501509 
L 1089.87549 -414.581606 
L 1072.314789 -381.707169 
L 1054.678394 -354.660123 
L 1037.117693 -335.495027 
L 1019.519144 -318.950732 
L 1001.996289 -299.45848 
L 984.322048 -279.539883 
L 966.837039 -270.949294 
L 949.124952 -240.532049 
L 931.639943 -222.440123 
L 913.965702 -209.539538 
L 896.442847 -196.950284 
L 878.844299 -175.291064 
L 861.283597 -164.351554 
L 843.647203 -144.303256 
L 826.086501 -130.230173 
L 808.487953 -102.127589 
z
"/>
    </defs>
    <g clip-path="url(#pfd471e208c)">
     <use xlink:href="#m0180f4837f" x="0" y="504" style="fill: #08519c; fill-opacity: 0.15"/>
    </g>
   </g>
   <g id="FillBetweenPolyCollection_8">
    <defs>
     <path id="m86629c6330" d="M 808.487953 -98.147079 
L 808.487953 -69.56035 
L 826.086501 -79.964929 
L 843.647203 -88.603323 
L 861.283597 -95.764042 
L 878.844299 -100.78207 
L 896.442847 -105.882798 
L 913.965702 -112.434249 
L 931.639943 -117.623423 
L 949.124952 -124.102265 
L 966.837039 -130.657441 
L 984.322048 -138.880711 
L 1001.996289 -145.746435 
L 1019.519144 -156.09844 
L 1037.117693 -169.175066 
L 1054.678394 -174.143717 
L 1072.314789 -182.966968 
L 1089.87549 -190.943705 
L 1107.474038 -209.115119 
L 1125.261818 -224.48866 
L 1125.261818 -481.555463 
L 1125.261818 -481.555463 
L 1107.474038 -451.116188 
L 1089.87549 -408.236665 
L 1072.314789 -386.511337 
L 1054.678394 -375.198725 
L 1037.117693 -356.251824 
L 1019.519144 -317.895439 
L 1001.996289 -293.383402 
L 984.322048 -280.982713 
L 966.837039 -264.620688 
L 949.124952 -245.543016 
L 931.639943 -222.653993 
L 913.965702 -202.638364 
L 896.442847 -198.831817 
L 878.844299 -176.53924 
L 861.283597 -168.151106 
L 843.647203 -143.301156 
L 826.086501 -126.015211 
L 808.487953 -98.147079 
z
"/>
    </defs>
    <g clip-path="url(#pfd471e208c)">
     <use xlink:href="#m86629c6330" x="0" y="504" style="fill: #969696; fill-opacity: 0.15"/>
    </g>
   </g>
   <g id="FillBetweenPolyCollection_9">
    <defs>
     <path id="m1b2f3d9a8e" d="M 808.487953 -87.843506 
L 808.487953 -64.994421 
L 826.086501 -73.613637 
L 843.647203 -78.899064 
L 861.283597 -84.703547 
L 878.844299 -91.202469 
L 896.442847 -98.504506 
L 913.965702 -102.957344 
L 931.639943 -109.30687 
L 949.124952 -114.905446 
L 966.837039 -121.601785 
L 984.322048 -128.363281 
L 1001.996289 -135.549526 
L 1019.519144 -142.01532 
L 1037.117693 -146.800305 
L 1054.678394 -154.532283 
L 1072.314789 -159.171538 
L 1089.87549 -167.341888 
L 1107.474038 -174.695825 
L 1125.261818 -185.69665 
L 1125.261818 -409.372388 
L 1125.261818 -409.372388 
L 1107.474038 -381.028109 
L 1089.87549 -356.988758 
L 1072.314789 -324.471263 
L 1054.678394 -315.44027 
L 1037.117693 -289.721239 
L 1019.519144 -268.676867 
L 1001.996289 -252.845907 
L 984.322048 -240.461562 
L 966.837039 -223.272605 
L 949.124952 -213.782977 
L 931.639943 -202.018868 
L 913.965702 -188.871799 
L 896.442847 -179.62447 
L 878.844299 -159.668797 
L 861.283597 -145.325736 
L 843.647203 -123.386038 
L 826.086501 -111.941829 
L 808.487953 -87.843506 
z
"/>
    </defs>
    <g clip-path="url(#pfd471e208c)">
     <use xlink:href="#m1b2f3d9a8e" x="0" y="504" style="fill: #a50f15; fill-opacity: 0.15"/>
    </g>
   </g>
   <g id="matplotlib.axis_5">
    <g id="xtick_19">
     <g id="line2d_78">
      <path d="M 790.700173 455.56 
L 790.700173 39.48 
" clip-path="url(#pfd471e208c)" style="fill: none; stroke-dasharray: 0.8,1.32; stroke-dashoffset: 0; stroke: #d3d3d3; stroke-opacity: 0.7; stroke-width: 0.8"/>
     </g>
     <g id="line2d_79">
      <g>
       <use xlink:href="#m9805787ac4" x="790.700173" y="455.56" style="stroke: #000000; stroke-width: 0.8"/>
      </g>
     </g>
     <g id="text_36">
      <!-- 0 -->
      <g transform="translate(787.518923 470.158437) scale(0.1 -0.1)">
       <use xlink:href="#DejaVuSans-30"/>
      </g>
     </g>
    </g>
    <g id="xtick_20">
     <g id="line2d_80">
      <path d="M 833.12592 455.56 
L 833.12592 39.48 
" clip-path="url(#pfd471e208c)" style="fill: none; stroke-dasharray: 0.8,1.32; stroke-dashoffset: 0; stroke: #d3d3d3; stroke-opacity: 0.7; stroke-width: 0.8"/>
     </g>
     <g id="line2d_81">
      <g>
       <use xlink:href="#m9805787ac4" x="833.12592" y="455.56" style="stroke: #000000; stroke-width: 0.8"/>
      </g>
     </g>
     <g id="text_37">
      <!-- 10 -->
      <g transform="translate(826.76342 470.158437) scale(0.1 -0.1)">
       <use xlink:href="#DejaVuSans-31"/>
       <use xlink:href="#DejaVuSans-30" transform="translate(63.623047 0)"/>
      </g>
     </g>
    </g>
    <g id="xtick_21">
     <g id="line2d_82">
      <path d="M 875.551667 455.56 
L 875.551667 39.48 
" clip-path="url(#pfd471e208c)" style="fill: none; stroke-dasharray: 0.8,1.32; stroke-dashoffset: 0; stroke: #d3d3d3; stroke-opacity: 0.7; stroke-width: 0.8"/>
     </g>
     <g id="line2d_83">
      <g>
       <use xlink:href="#m9805787ac4" x="875.551667" y="455.56" style="stroke: #000000; stroke-width: 0.8"/>
      </g>
     </g>
     <g id="text_38">
      <!-- 20 -->
      <g transform="translate(869.189167 470.158437) scale(0.1 -0.1)">
       <use xlink:href="#DejaVuSans-32"/>
       <use xlink:href="#DejaVuSans-30" transform="translate(63.623047 0)"/>
      </g>
     </g>
    </g>
    <g id="xtick_22">
     <g id="line2d_84">
      <path d="M 917.977414 455.56 
L 917.977414 39.48 
" clip-path="url(#pfd471e208c)" style="fill: none; stroke-dasharray: 0.8,1.32; stroke-dashoffset: 0; stroke: #d3d3d3; stroke-opacity: 0.7; stroke-width: 0.8"/>
     </g>
     <g id="line2d_85">
      <g>
       <use xlink:href="#m9805787ac4" x="917.977414" y="455.56" style="stroke: #000000; stroke-width: 0.8"/>
      </g>
     </g>
     <g id="text_39">
      <!-- 30 -->
      <g transform="translate(911.614914 470.158437) scale(0.1 -0.1)">
       <use xlink:href="#DejaVuSans-33"/>
       <use xlink:href="#DejaVuSans-30" transform="translate(63.623047 0)"/>
      </g>
     </g>
    </g>
    <g id="xtick_23">
     <g id="line2d_86">
      <path d="M 960.403162 455.56 
L 960.403162 39.48 
" clip-path="url(#pfd471e208c)" style="fill: none; stroke-dasharray: 0.8,1.32; stroke-dashoffset: 0; stroke: #d3d3d3; stroke-opacity: 0.7; stroke-width: 0.8"/>
     </g>
     <g id="line2d_87">
      <g>
       <use xlink:href="#m9805787ac4" x="960.403162" y="455.56" style="stroke: #000000; stroke-width: 0.8"/>
      </g>
     </g>
     <g id="text_40">
      <!-- 40 -->
      <g transform="translate(954.040662 470.158437) scale(0.1 -0.1)">
       <use xlink:href="#DejaVuSans-34"/>
       <use xlink:href="#DejaVuSans-30" transform="translate(63.623047 0)"/>
      </g>
     </g>
    </g>
    <g id="xtick_24">
     <g id="line2d_88">
      <path d="M 1002.828909 455.56 
L 1002.828909 39.48 
" clip-path="url(#pfd471e208c)" style="fill: none; stroke-dasharray: 0.8,1.32; stroke-dashoffset: 0; stroke: #d3d3d3; stroke-opacity: 0.7; stroke-width: 0.8"/>
     </g>
     <g id="line2d_89">
      <g>
       <use xlink:href="#m9805787ac4" x="1002.828909" y="455.56" style="stroke: #000000; stroke-width: 0.8"/>
      </g>
     </g>
     <g id="text_41">
      <!-- 50 -->
      <g transform="translate(996.466409 470.158437) scale(0.1 -0.1)">
       <use xlink:href="#DejaVuSans-35"/>
       <use xlink:href="#DejaVuSans-30" transform="translate(63.623047 0)"/>
      </g>
     </g>
    </g>
    <g id="xtick_25">
     <g id="line2d_90">
      <path d="M 1045.254656 455.56 
L 1045.254656 39.48 
" clip-path="url(#pfd471e208c)" style="fill: none; stroke-dasharray: 0.8,1.32; stroke-dashoffset: 0; stroke: #d3d3d3; stroke-opacity: 0.7; stroke-width: 0.8"/>
     </g>
     <g id="line2d_91">
      <g>
       <use xlink:href="#m9805787ac4" x="1045.254656" y="455.56" style="stroke: #000000; stroke-width: 0.8"/>
      </g>
     </g>
     <g id="text_42">
      <!-- 60 -->
      <g transform="translate(1038.892156 470.158437) scale(0.1 -0.1)">
       <use xlink:href="#DejaVuSans-36"/>
       <use xlink:href="#DejaVuSans-30" transform="translate(63.623047 0)"/>
      </g>
     </g>
    </g>
    <g id="xtick_26">
     <g id="line2d_92">
      <path d="M 1087.680403 455.56 
L 1087.680403 39.48 
" clip-path="url(#pfd471e208c)" style="fill: none; stroke-dasharray: 0.8,1.32; stroke-dashoffset: 0; stroke: #d3d3d3; stroke-opacity: 0.7; stroke-width: 0.8"/>
     </g>
     <g id="line2d_93">
      <g>
       <use xlink:href="#m9805787ac4" x="1087.680403" y="455.56" style="stroke: #000000; stroke-width: 0.8"/>
      </g>
     </g>
     <g id="text_43">
      <!-- 70 -->
      <g transform="translate(1081.317903 470.158437) scale(0.1 -0.1)">
       <use xlink:href="#DejaVuSans-37"/>
       <use xlink:href="#DejaVuSans-30" transform="translate(63.623047 0)"/>
      </g>
     </g>
    </g>
    <g id="xtick_27">
     <g id="line2d_94">
      <path d="M 1130.10615 455.56 
L 1130.10615 39.48 
" clip-path="url(#pfd471e208c)" style="fill: none; stroke-dasharray: 0.8,1.32; stroke-dashoffset: 0; stroke: #d3d3d3; stroke-opacity: 0.7; stroke-width: 0.8"/>
     </g>
     <g id="line2d_95">
      <g>
       <use xlink:href="#m9805787ac4" x="1130.10615" y="455.56" style="stroke: #000000; stroke-width: 0.8"/>
      </g>
     </g>
     <g id="text_44">
      <!-- 80 -->
      <g transform="translate(1123.74365 470.158437) scale(0.1 -0.1)">
       <use xlink:href="#DejaVuSans-38"/>
       <use xlink:href="#DejaVuSans-30" transform="translate(63.623047 0)"/>
      </g>
     </g>
    </g>
    <g id="text_45">
     <!-- edges missing (%) -->
     <g transform="translate(892.06 488.395625) scale(0.16 -0.16)">
      <use xlink:href="#DejaVuSans-65"/>
      <use xlink:href="#DejaVuSans-64" transform="translate(61.523438 0)"/>
      <use xlink:href="#DejaVuSans-67" transform="translate(125 0)"/>
      <use xlink:href="#DejaVuSans-65" transform="translate(188.476562 0)"/>
      <use xlink:href="#DejaVuSans-73" transform="translate(250 0)"/>
      <use xlink:href="#DejaVuSans-20" transform="translate(302.099609 0)"/>
      <use xlink:href="#DejaVuSans-6d" transform="translate(333.886719 0)"/>
      <use xlink:href="#DejaVuSans-69" transform="translate(431.298828 0)"/>
      <use xlink:href="#DejaVuSans-73" transform="translate(459.082031 0)"/>
      <use xlink:href="#DejaVuSans-73" transform="translate(511.181641 0)"/>
      <use xlink:href="#DejaVuSans-69" transform="translate(563.28125 0)"/>
      <use xlink:href="#DejaVuSans-6e" transform="translate(591.064453 0)"/>
      <use xlink:href="#DejaVuSans-67" transform="translate(654.443359 0)"/>
      <use xlink:href="#DejaVuSans-20" transform="translate(717.919922 0)"/>
      <use xlink:href="#DejaVuSans-28" transform="translate(749.707031 0)"/>
      <use xlink:href="#DejaVuSans-25" transform="translate(788.720703 0)"/>
      <use xlink:href="#DejaVuSans-29" transform="translate(883.740234 0)"/>
     </g>
    </g>
   </g>
   <g id="matplotlib.axis_6">
    <g id="ytick_13">
     <g id="line2d_96">
      <path d="M 790.56 455.56 
L 1141.2 455.56 
" clip-path="url(#pfd471e208c)" style="fill: none; stroke-dasharray: 0.8,1.32; stroke-dashoffset: 0; stroke: #d3d3d3; stroke-opacity: 0.7; stroke-width: 0.8"/>
     </g>
     <g id="line2d_97">
      <g>
       <use xlink:href="#mcd3588e052" x="790.56" y="455.56" style="stroke: #000000; stroke-width: 0.8"/>
      </g>
     </g>
    </g>
    <g id="ytick_14">
     <g id="line2d_98">
      <path d="M 790.56 378.476066 
L 1141.2 378.476066 
" clip-path="url(#pfd471e208c)" style="fill: none; stroke-dasharray: 0.8,1.32; stroke-dashoffset: 0; stroke: #d3d3d3; stroke-opacity: 0.7; stroke-width: 0.8"/>
     </g>
     <g id="line2d_99">
      <g>
       <use xlink:href="#mcd3588e052" x="790.56" y="378.476066" style="stroke: #000000; stroke-width: 0.8"/>
      </g>
     </g>
    </g>
    <g id="ytick_15">
     <g id="line2d_100">
      <path d="M 790.56 301.392132 
L 1141.2 301.392132 
" clip-path="url(#pfd471e208c)" style="fill: none; stroke-dasharray: 0.8,1.32; stroke-dashoffset: 0; stroke: #d3d3d3; stroke-opacity: 0.7; stroke-width: 0.8"/>
     </g>
     <g id="line2d_101">
      <g>
       <use xlink:href="#mcd3588e052" x="790.56" y="301.392132" style="stroke: #000000; stroke-width: 0.8"/>
      </g>
     </g>
    </g>
    <g id="ytick_16">
     <g id="line2d_102">
      <path d="M 790.56 224.308197 
L 1141.2 224.308197 
" clip-path="url(#pfd471e208c)" style="fill: none; stroke-dasharray: 0.8,1.32; stroke-dashoffset: 0; stroke: #d3d3d3; stroke-opacity: 0.7; stroke-width: 0.8"/>
     </g>
     <g id="line2d_103">
      <g>
       <use xlink:href="#mcd3588e052" x="790.56" y="224.308197" style="stroke: #000000; stroke-width: 0.8"/>
      </g>
     </g>
    </g>
    <g id="ytick_17">
     <g id="line2d_104">
      <path d="M 790.56 147.224263 
L 1141.2 147.224263 
" clip-path="url(#pfd471e208c)" style="fill: none; stroke-dasharray: 0.8,1.32; stroke-dashoffset: 0; stroke: #d3d3d3; stroke-opacity: 0.7; stroke-width: 0.8"/>
     </g>
     <g id="line2d_105">
      <g>
       <use xlink:href="#mcd3588e052" x="790.56" y="147.224263" style="stroke: #000000; stroke-width: 0.8"/>
      </g>
     </g>
    </g>
    <g id="ytick_18">
     <g id="line2d_106">
      <path d="M 790.56 70.140329 
L 1141.2 70.140329 
" clip-path="url(#pfd471e208c)" style="fill: none; stroke-dasharray: 0.8,1.32; stroke-dashoffset: 0; stroke: #d3d3d3; stroke-opacity: 0.7; stroke-width: 0.8"/>
     </g>
     <g id="line2d_107">
      <g>
       <use xlink:href="#mcd3588e052" x="790.56" y="70.140329" style="stroke: #000000; stroke-width: 0.8"/>
      </g>
     </g>
    </g>
   </g>
   <g id="line2d_108">
    <path d="M 808.487953 433.995345 
L 826.086501 423.548317 
L 843.647203 414.967134 
L 861.283597 410.699771 
L 878.844299 402.702421 
L 896.442847 395.340455 
L 913.965702 387.55149 
L 931.639943 382.863469 
L 949.124952 376.717462 
L 966.837039 370.822507 
L 984.322048 364.316914 
L 1001.996289 355.302 
L 1019.519144 346.459034 
L 1037.117693 336.376865 
L 1054.678394 328.295571 
L 1072.314789 315.937942 
L 1089.87549 306.142789 
L 1107.474038 291.948074 
L 1125.261818 280.498554 
" clip-path="url(#pfd471e208c)" style="fill: none; stroke: #08519c; stroke-width: 2.5; stroke-linecap: square"/>
   </g>
   <g id="line2d_109">
    <path d="M 808.487953 401.872411 
L 826.086501 373.769827 
L 843.647203 359.696744 
L 861.283597 339.648446 
L 878.844299 328.708936 
L 896.442847 307.049716 
L 913.965702 294.460462 
L 931.639943 281.559877 
L 949.124952 263.467951 
L 966.837039 233.050706 
L 984.322048 224.460117 
L 1001.996289 204.54152 
L 1019.519144 185.049268 
L 1037.117693 168.504973 
L 1054.678394 149.339877 
L 1072.314789 122.292831 
L 1089.87549 89.418394 
L 1107.474038 49.498491 
L 1125.261818 11.442949 
" clip-path="url(#pfd471e208c)" style="fill: none; stroke-dasharray: 5.55,2.4; stroke-dashoffset: 0; stroke: #08519c; stroke-width: 1.5"/>
   </g>
   <g id="line2d_110">
    <path d="M 808.487953 434.43965 
L 826.086501 424.035071 
L 843.647203 415.396677 
L 861.283597 408.235958 
L 878.844299 403.21793 
L 896.442847 398.117202 
L 913.965702 391.565751 
L 931.639943 386.376577 
L 949.124952 379.897735 
L 966.837039 373.342559 
L 984.322048 365.119289 
L 1001.996289 358.253565 
L 1019.519144 347.90156 
L 1037.117693 334.824934 
L 1054.678394 329.856283 
L 1072.314789 321.033032 
L 1089.87549 313.056295 
L 1107.474038 294.884881 
L 1125.261818 279.51134 
" clip-path="url(#pfd471e208c)" style="fill: none; stroke: #969696; stroke-width: 2.5; stroke-linecap: square"/>
   </g>
   <g id="line2d_111">
    <path d="M 808.487953 405.852921 
L 826.086501 377.984789 
L 843.647203 360.698844 
L 861.283597 335.848894 
L 878.844299 327.46076 
L 896.442847 305.168183 
L 913.965702 301.361636 
L 931.639943 281.346007 
L 949.124952 258.456984 
L 966.837039 239.379312 
L 984.322048 223.017287 
L 1001.996289 210.616598 
L 1019.519144 186.104561 
L 1037.117693 147.748176 
L 1054.678394 128.801275 
L 1072.314789 117.488663 
L 1089.87549 95.763335 
L 1107.474038 52.883812 
L 1125.261818 22.444537 
" clip-path="url(#pfd471e208c)" style="fill: none; stroke-dasharray: 5.55,2.4; stroke-dashoffset: 0; stroke: #969696; stroke-width: 1.5"/>
   </g>
   <g id="line2d_112">
    <path d="M 808.487953 439.005579 
L 826.086501 430.386363 
L 843.647203 425.100936 
L 861.283597 419.296453 
L 878.844299 412.797531 
L 896.442847 405.495494 
L 913.965702 401.042656 
L 931.639943 394.69313 
L 949.124952 389.094554 
L 966.837039 382.398215 
L 984.322048 375.636719 
L 1001.996289 368.450474 
L 1019.519144 361.98468 
L 1037.117693 357.199695 
L 1054.678394 349.467717 
L 1072.314789 344.828462 
L 1089.87549 336.658112 
L 1107.474038 329.304175 
L 1125.261818 318.30335 
" clip-path="url(#pfd471e208c)" style="fill: none; stroke: #a50f15; stroke-width: 2.5; stroke-linecap: square"/>
   </g>
   <g id="line2d_113">
    <path d="M 808.487953 416.156494 
L 826.086501 392.058171 
L 843.647203 380.613962 
L 861.283597 358.674264 
L 878.844299 344.331203 
L 896.442847 324.37553 
L 913.965702 315.128201 
L 931.639943 301.981132 
L 949.124952 290.217023 
L 966.837039 280.727395 
L 984.322048 263.538438 
L 1001.996289 251.154093 
L 1019.519144 235.323133 
L 1037.117693 214.278761 
L 1054.678394 188.55973 
L 1072.314789 179.528737 
L 1089.87549 147.011242 
L 1107.474038 122.971891 
L 1125.261818 94.627612 
" clip-path="url(#pfd471e208c)" style="fill: none; stroke-dasharray: 5.55,2.4; stroke-dashoffset: 0; stroke: #a50f15; stroke-width: 1.5"/>
   </g>
   <g id="patch_9">
    <path d="M 790.56 455.56 
L 790.56 39.48 
" style="fill: none; stroke: #000000; stroke-width: 0.8; stroke-linejoin: miter; stroke-linecap: square"/>
   </g>
   <g id="patch_10">
    <path d="M 790.56 455.56 
L 1141.2 455.56 
" style="fill: none; stroke: #000000; stroke-width: 0.8; stroke-linejoin: miter; stroke-linecap: square"/>
   </g>
   <g id="text_46">
    <!-- Hex -->
    <g transform="translate(948.404531 24.48) scale(0.18 -0.18)">
     <defs>
      <path id="DejaVuSans-48" d="M 628 4666 
L 1259 4666 
L 1259 2753 
L 3553 2753 
L 3553 4666 
L 4184 4666 
L 4184 0 
L 3553 0 
L 3553 2222 
L 1259 2222 
L 1259 0 
L 628 0 
L 628 4666 
z
" transform="scale(0.015625)"/>
      <path id="DejaVuSans-78" d="M 3513 3500 
L 2247 1797 
L 3578 0 
L 2900 0 
L 1881 1375 
L 863 0 
L 184 0 
L 1544 1831 
L 300 3500 
L 978 3500 
L 1906 2253 
L 2834 3500 
L 3513 3500 
z
" transform="scale(0.015625)"/>
     </defs>
     <use xlink:href="#DejaVuSans-48"/>
     <use xlink:href="#DejaVuSans-65" transform="translate(75.195312 0)"/>
     <use xlink:href="#DejaVuSans-78" transform="translate(134.96875 0)"/>
    </g>
   </g>
  </g>
 </g>
 <defs>
  <clipPath id="p02dc9a88eb">
   <rect x="60.68" y="39.48" width="350.64" height="416.08"/>
  </clipPath>
  <clipPath id="p5a81b6c03a">
   <rect x="425.62" y="39.48" width="350.64" height="416.08"/>
  </clipPath>
  <clipPath id="pfd471e208c">
   <rect x="790.56" y="39.48" width="350.64" height="416.08"/>
  </clipPath>
 </defs>
</svg>
